<svg width="44" height="33" viewBox="0 0 44 33" fill="none" xmlns="http://www.w3.org/2000/svg">
<path d="M27.0173 16.5237C27.0173 22.3314 25.4834 26.7346 22.4157 29.7331C20.1469 31.911 17.2869 33 13.8357 33C10.4484 33 7.62039 31.911 5.35157 29.7331C2.28386 26.7346 0.75 22.3314 0.75 16.5237C0.75 10.6212 2.28386 6.2023 5.35157 3.26686C7.62039 1.08895 10.4484 0 13.8357 0C17.2869 0 20.1469 1.08895 22.4157 3.26686C25.4834 6.2023 27.0173 10.6212 27.0173 16.5237ZM16.8555 7.43329C16.0246 6.64419 15.034 6.24964 13.8836 6.24964C12.7332 6.24964 11.7426 6.64419 10.9118 7.43329C9.12229 9.1693 8.22755 12.1836 8.22755 16.4763C8.22755 20.8006 9.12229 23.8307 10.9118 25.5667C11.7426 26.3558 12.7332 26.7504 13.8836 26.7504C15.034 26.7504 16.0246 26.3558 16.8555 25.5667C18.645 23.8307 19.5397 20.8006 19.5397 16.4763C19.5397 12.1836 18.645 9.1693 16.8555 7.43329Z" fill="#363636"/>
<path d="M36.3683 32.2898V6.86514H31.8147V0.710186H43.75V32.2898H36.3683Z" fill="#363636"/>
</svg>
