<svg width="53" height="33" viewBox="0 0 53 33" fill="none" xmlns="http://www.w3.org/2000/svg">
<path d="M26.2294 16.5237C26.2294 22.3314 24.7124 26.7346 21.6783 29.7331C19.4343 31.911 16.6057 33 13.1923 33C9.84217 33 7.04511 31.911 4.80114 29.7331C1.76705 26.7346 0.25 22.3314 0.25 16.5237C0.25 10.6212 1.76705 6.2023 4.80114 3.26686C7.04511 1.08895 9.84217 0 13.1923 0C16.6057 0 19.4343 1.08895 21.6783 3.26686C24.7124 6.2023 26.2294 10.6212 26.2294 16.5237ZM16.179 7.43329C15.3573 6.64419 14.3775 6.24964 13.2397 6.24964C12.1019 6.24964 11.1222 6.64419 10.3004 7.43329C8.53055 9.1693 7.64561 12.1836 7.64561 16.4763C7.64561 20.8006 8.53055 23.8307 10.3004 25.5667C11.1222 26.3558 12.1019 26.7504 13.2397 26.7504C14.3775 26.7504 15.3573 26.3558 16.179 25.5667C17.9489 23.8307 18.8338 20.8006 18.8338 16.4763C18.8338 12.1836 17.9489 9.1693 16.179 7.43329Z" fill="#363636"/>
<path d="M52.25 26.1349V32.2898H28.0721L37.5536 21.9684C39.8608 19.3802 41.5833 17.2339 42.721 15.5294C43.9852 13.5093 44.6174 11.726 44.6174 10.1793C44.6174 8.85366 44.2065 7.81205 43.3848 7.05452C42.721 6.45481 41.7571 6.15495 40.4929 6.15495C39.2603 6.15495 38.2963 6.53372 37.601 7.29125C36.7161 8.26973 36.2736 9.56385 36.2736 11.1736H28.9728C29.2572 7.89096 30.3476 5.25538 32.2439 3.26686C34.2983 1.08895 37.2059 0 40.967 0C44.3487 0 47.0826 0.994262 49.1685 2.98278C51.128 4.93974 52.1078 7.46485 52.1078 10.5581C52.1078 12.9885 51.3176 15.3085 49.7374 17.5179C48.7892 18.8436 47.0984 20.6585 44.6648 22.9627L41.3462 26.1349H52.25Z" fill="#363636"/>
</svg>
