<svg width="55" height="33" viewBox="0 0 55 33" fill="none" xmlns="http://www.w3.org/2000/svg">
<path d="M27.4188 16.5C27.4188 22.2994 25.8615 26.6963 22.7469 29.6905C20.4434 31.8653 17.5397 32.9527 14.0358 32.9527C10.5967 32.9527 7.72543 31.8653 5.42192 29.6905C2.30731 26.6963 0.75 22.2994 0.75 16.5C0.75 10.606 2.30731 6.19341 5.42192 3.26218C7.72543 1.08739 10.5967 0 14.0358 0C17.5397 0 20.4434 1.08739 22.7469 3.26218C25.8615 6.19341 27.4188 10.606 27.4188 16.5ZM17.1017 7.42264C16.2582 6.63467 15.2524 6.24069 14.0844 6.24069C12.9164 6.24069 11.9107 6.63467 11.0671 7.42264C9.25029 9.15616 8.34186 12.1662 8.34186 16.4527C8.34186 20.7708 9.25029 23.7966 11.0671 25.5301C11.9107 26.3181 12.9164 26.712 14.0844 26.712C15.2524 26.712 16.2582 26.3181 17.1017 25.5301C18.9186 23.7966 19.827 20.7708 19.827 16.4527C19.827 12.1662 18.9186 9.15616 17.1017 7.42264Z" fill="#363636"/>
<path d="M38.0576 10.1648H30.8551C31.1795 7.23353 32.2502 4.85387 34.067 3.02579C36.0461 1.04011 38.7876 0.0472773 42.2916 0.0472773C46.055 0.0472773 48.8939 0.977077 50.8081 2.83668C52.4627 4.38109 53.29 6.52436 53.29 9.26648C53.29 10.9685 52.852 12.4026 51.9761 13.5688C51.3596 14.4198 50.5485 15.0817 49.5428 15.5544C51.165 16.1218 52.3978 16.9728 53.2414 18.1075C54.2471 19.4312 54.75 21.086 54.75 23.0716C54.75 25.9398 53.6631 28.3352 51.4894 30.2579C49.413 32.086 46.5579 33 42.9242 33C38.8363 33 35.673 31.9126 33.4344 29.7378C31.358 27.6891 30.1576 25.0888 29.8331 21.937H37.3277C37.4574 23.4183 37.9765 24.6003 38.885 25.4828C39.7609 26.3338 40.9614 26.7593 42.4862 26.7593C43.8489 26.7593 44.9357 26.3968 45.7468 25.6719C46.6228 24.884 47.0608 23.8123 47.0608 22.457C47.0608 21.1963 46.5904 20.1877 45.6495 19.4312C44.7735 18.7693 43.4433 18.4384 41.6589 18.4384H41.0749V13.4269H41.5129C42.9404 13.4269 44.0273 13.1275 44.7735 12.5287C45.5846 11.8668 45.9902 10.9212 45.9902 9.69198C45.9902 8.62034 45.6333 7.76934 44.9195 7.13897C44.2057 6.5086 43.2811 6.19341 42.1456 6.19341C40.9127 6.19341 39.9394 6.54012 39.2256 7.23352C38.5119 7.98997 38.1225 8.96705 38.0576 10.1648Z" fill="#363636"/>
</svg>
