<svg width="55" height="33" viewBox="0 0 55 33" fill="none" xmlns="http://www.w3.org/2000/svg">
<path d="M26.2862 16.5237C26.2862 22.3314 24.7512 26.7346 21.6813 29.7331C19.4109 31.911 16.5488 33 13.0951 33C9.70543 33 6.87534 31.911 4.60488 29.7331C1.53496 26.7346 0 22.3314 0 16.5237C0 10.6212 1.53496 6.2023 4.60488 3.26686C6.87534 1.08895 9.70543 0 13.0951 0C16.5488 0 19.4109 1.08895 21.6813 3.26686C24.7512 6.2023 26.2862 10.6212 26.2862 16.5237ZM16.1171 7.43329C15.2856 6.64419 14.2943 6.24964 13.1431 6.24964C11.9919 6.24964 11.0005 6.64419 10.1691 7.43329C8.37833 9.1693 7.48293 12.1836 7.48293 16.4763C7.48293 20.8006 8.37833 23.8307 10.1691 25.5667C11.0005 26.3558 11.9919 26.7504 13.1431 26.7504C14.2943 26.7504 15.2856 26.3558 16.1171 25.5667C17.9079 23.8307 18.8033 20.8006 18.8033 16.4763C18.8033 12.1836 17.9079 9.1693 16.1171 7.43329Z" fill="#363636"/>
<path d="M51.1626 0.710186V20.5481H55V26.3242H51.1626V32.2898H44.0634V26.3242H28.426V22.1578L42.5284 0.710186H51.1626ZM36.1967 20.5481H44.0634V8.28551L36.1967 20.5481Z" fill="#363636"/>
</svg>
