<svg width="461" height="515" viewBox="0 0 461 515" fill="none" xmlns="http://www.w3.org/2000/svg">
<path d="M0.765368 -12L0.765344 538.236M46.6888 -12L46.6888 538.236M92.6123 -12L92.6123 538.236M138.536 -12L138.536 538.236M184.459 -12L184.459 538.236M230.383 -12L230.383 538.236M276.306 -12L276.306 538.236M322.23 -12L322.23 538.236M368.153 -12L368.153 538.236M414.077 -12L414.076 538.236M460 -12L460 538.236M459.235 -11.2358H0M459.235 34.6172H0M459.235 80.4702H0M459.235 126.323H0M459.235 172.176H0M459.235 218.029H0M459.235 263.882H0M459.235 309.735H0M459.235 355.588H0M459.235 401.441H0M459.235 447.294H0M459.235 493.147H0M459.235 539H0" stroke="url(#paint0_linear_1_2163)"/>
<defs>
<linearGradient id="paint0_linear_1_2163" x1="32.215" y1="464.683" x2="451.81" y2="63.1535" gradientUnits="userSpaceOnUse">
<stop offset="0.32" stop-color="#2A2A2A" stop-opacity="0.21"/>
<stop offset="1" stop-color="#232323"/>
</linearGradient>
</defs>
</svg>
