<svg width="377" height="501" viewBox="0 0 377 501" fill="none" xmlns="http://www.w3.org/2000/svg">
<path fill-rule="evenodd" clip-rule="evenodd" d="M-114.313 -8.00003L493 -7.99997L493 -6.30894L-114.313 -6.309L-114.313 -8.00003Z" fill="url(#paint0_linear_1_619)"/>
<path fill-rule="evenodd" clip-rule="evenodd" d="M-114.313 42.7309L493 42.7309L493 44.4219L-114.313 44.4219L-114.313 42.7309Z" fill="url(#paint1_linear_1_619)"/>
<path fill-rule="evenodd" clip-rule="evenodd" d="M-114.313 93.4618L493 93.4618L493 95.1528L-114.313 95.1528L-114.313 93.4618Z" fill="url(#paint2_linear_1_619)"/>
<path fill-rule="evenodd" clip-rule="evenodd" d="M-114.313 144.193L493 144.193L493 145.884L-114.313 145.884L-114.313 144.193Z" fill="url(#paint3_linear_1_619)"/>
<path fill-rule="evenodd" clip-rule="evenodd" d="M-114.313 194.924L493 194.924L493 196.615L-114.313 196.615L-114.313 194.924Z" fill="url(#paint4_linear_1_619)"/>
<path fill-rule="evenodd" clip-rule="evenodd" d="M-114.313 245.654L493 245.654L493 247.346L-114.313 247.345L-114.313 245.654Z" fill="url(#paint5_linear_1_619)"/>
<path fill-rule="evenodd" clip-rule="evenodd" d="M-114.313 296.385L493 296.385L493 298.076L-114.313 298.076L-114.313 296.385Z" fill="url(#paint6_linear_1_619)"/>
<path fill-rule="evenodd" clip-rule="evenodd" d="M-114.313 347.116L493 347.116L493 348.807L-114.313 348.807L-114.313 347.116Z" fill="url(#paint7_linear_1_619)"/>
<path fill-rule="evenodd" clip-rule="evenodd" d="M-114.313 397.847L493 397.847L493 399.538L-114.313 399.538L-114.313 397.847Z" fill="url(#paint8_linear_1_619)"/>
<path fill-rule="evenodd" clip-rule="evenodd" d="M-114.313 448.578L493 448.578L493 450.269L-114.313 450.269L-114.313 448.578Z" fill="url(#paint9_linear_1_619)"/>
<path fill-rule="evenodd" clip-rule="evenodd" d="M-114.313 499.309L493 499.309L493 501L-114.313 501L-114.313 499.309Z" fill="url(#paint10_linear_1_619)"/>
<path fill-rule="evenodd" clip-rule="evenodd" d="M493 -7.99997L493 499.309L491.313 499.309L491.313 -7.99997L493 -7.99997Z" fill="url(#paint11_linear_1_619)"/>
<path fill-rule="evenodd" clip-rule="evenodd" d="M442.391 -7.99998L442.391 499.309L440.704 499.309L440.704 -7.99998L442.391 -7.99998Z" fill="url(#paint12_linear_1_619)"/>
<path fill-rule="evenodd" clip-rule="evenodd" d="M391.781 -7.99998L391.781 499.309L390.094 499.309L390.094 -7.99998L391.781 -7.99998Z" fill="url(#paint13_linear_1_619)"/>
<path fill-rule="evenodd" clip-rule="evenodd" d="M341.172 -7.99998L341.172 499.309L339.485 499.309L339.485 -7.99998L341.172 -7.99998Z" fill="url(#paint14_linear_1_619)"/>
<path fill-rule="evenodd" clip-rule="evenodd" d="M290.562 -7.99998L290.562 499.309L288.875 499.309L288.875 -7.99998L290.562 -7.99998Z" fill="url(#paint15_linear_1_619)"/>
<path fill-rule="evenodd" clip-rule="evenodd" d="M239.953 -7.99998L239.953 499.309L238.266 499.309L238.266 -7.99998L239.953 -7.99998Z" fill="url(#paint16_linear_1_619)"/>
<path fill-rule="evenodd" clip-rule="evenodd" d="M189.344 -7.99999L189.343 499.309L187.657 499.309L187.657 -7.99999L189.344 -7.99999Z" fill="url(#paint17_linear_1_619)"/>
<path fill-rule="evenodd" clip-rule="evenodd" d="M138.734 -7.99999L138.734 499.309L137.047 499.309L137.047 -7.99999L138.734 -7.99999Z" fill="url(#paint18_linear_1_619)"/>
<path fill-rule="evenodd" clip-rule="evenodd" d="M88.1247 -7.99999L88.1246 499.309L86.4377 499.309L86.4377 -7.99999L88.1247 -7.99999Z" fill="url(#paint19_linear_1_619)"/>
<path fill-rule="evenodd" clip-rule="evenodd" d="M37.5152 -7.99999L37.5152 499.309L35.8282 499.309L35.8282 -7.99999L37.5152 -7.99999Z" fill="url(#paint20_linear_1_619)"/>
<path fill-rule="evenodd" clip-rule="evenodd" d="M-13.0942 -8L-13.0942 499.309L-14.7812 499.309L-14.7812 -8L-13.0942 -8Z" fill="url(#paint21_linear_1_619)"/>
<path fill-rule="evenodd" clip-rule="evenodd" d="M-63.7036 -8L-63.7036 499.309L-65.3906 499.309L-65.3906 -8L-63.7036 -8Z" fill="url(#paint22_linear_1_619)"/>
<path fill-rule="evenodd" clip-rule="evenodd" d="M-114.313 -8.00003L-114.313 499.309L-116 499.309L-116 -8L-114.313 -8.00003Z" fill="url(#paint23_linear_1_619)"/>
<defs>
<linearGradient id="paint0_linear_1_619" x1="-33.8597" y1="27.6466" x2="410.463" y2="491.432" gradientUnits="userSpaceOnUse">
<stop offset="0.32" stop-color="#2A2A2A" stop-opacity="0.21"/>
<stop offset="1" stop-color="#232323"/>
</linearGradient>
<linearGradient id="paint1_linear_1_619" x1="-33.8597" y1="27.6466" x2="410.463" y2="491.432" gradientUnits="userSpaceOnUse">
<stop offset="0.32" stop-color="#2A2A2A" stop-opacity="0.21"/>
<stop offset="1" stop-color="#232323"/>
</linearGradient>
<linearGradient id="paint2_linear_1_619" x1="-33.8597" y1="27.6466" x2="410.463" y2="491.432" gradientUnits="userSpaceOnUse">
<stop offset="0.32" stop-color="#2A2A2A" stop-opacity="0.21"/>
<stop offset="1" stop-color="#232323"/>
</linearGradient>
<linearGradient id="paint3_linear_1_619" x1="-33.8597" y1="27.6466" x2="410.463" y2="491.432" gradientUnits="userSpaceOnUse">
<stop offset="0.32" stop-color="#2A2A2A" stop-opacity="0.21"/>
<stop offset="1" stop-color="#232323"/>
</linearGradient>
<linearGradient id="paint4_linear_1_619" x1="-33.8597" y1="27.6466" x2="410.463" y2="491.432" gradientUnits="userSpaceOnUse">
<stop offset="0.32" stop-color="#2A2A2A" stop-opacity="0.21"/>
<stop offset="1" stop-color="#232323"/>
</linearGradient>
<linearGradient id="paint5_linear_1_619" x1="-33.8597" y1="27.6466" x2="410.463" y2="491.432" gradientUnits="userSpaceOnUse">
<stop offset="0.32" stop-color="#2A2A2A" stop-opacity="0.21"/>
<stop offset="1" stop-color="#232323"/>
</linearGradient>
<linearGradient id="paint6_linear_1_619" x1="-33.8597" y1="27.6466" x2="410.463" y2="491.432" gradientUnits="userSpaceOnUse">
<stop offset="0.32" stop-color="#2A2A2A" stop-opacity="0.21"/>
<stop offset="1" stop-color="#232323"/>
</linearGradient>
<linearGradient id="paint7_linear_1_619" x1="-33.8597" y1="27.6466" x2="410.463" y2="491.432" gradientUnits="userSpaceOnUse">
<stop offset="0.32" stop-color="#2A2A2A" stop-opacity="0.21"/>
<stop offset="1" stop-color="#232323"/>
</linearGradient>
<linearGradient id="paint8_linear_1_619" x1="-33.8597" y1="27.6466" x2="410.463" y2="491.432" gradientUnits="userSpaceOnUse">
<stop offset="0.32" stop-color="#2A2A2A" stop-opacity="0.21"/>
<stop offset="1" stop-color="#232323"/>
</linearGradient>
<linearGradient id="paint9_linear_1_619" x1="-33.8597" y1="27.6466" x2="410.463" y2="491.432" gradientUnits="userSpaceOnUse">
<stop offset="0.32" stop-color="#2A2A2A" stop-opacity="0.21"/>
<stop offset="1" stop-color="#232323"/>
</linearGradient>
<linearGradient id="paint10_linear_1_619" x1="-33.8597" y1="27.6466" x2="410.463" y2="491.432" gradientUnits="userSpaceOnUse">
<stop offset="0.32" stop-color="#2A2A2A" stop-opacity="0.21"/>
<stop offset="1" stop-color="#232323"/>
</linearGradient>
<linearGradient id="paint11_linear_1_619" x1="-33.8597" y1="27.6466" x2="410.463" y2="491.432" gradientUnits="userSpaceOnUse">
<stop offset="0.32" stop-color="#2A2A2A" stop-opacity="0.21"/>
<stop offset="1" stop-color="#232323"/>
</linearGradient>
<linearGradient id="paint12_linear_1_619" x1="-33.8597" y1="27.6466" x2="410.463" y2="491.432" gradientUnits="userSpaceOnUse">
<stop offset="0.32" stop-color="#2A2A2A" stop-opacity="0.21"/>
<stop offset="1" stop-color="#232323"/>
</linearGradient>
<linearGradient id="paint13_linear_1_619" x1="-33.8597" y1="27.6466" x2="410.463" y2="491.432" gradientUnits="userSpaceOnUse">
<stop offset="0.32" stop-color="#2A2A2A" stop-opacity="0.21"/>
<stop offset="1" stop-color="#232323"/>
</linearGradient>
<linearGradient id="paint14_linear_1_619" x1="-33.8597" y1="27.6466" x2="410.463" y2="491.432" gradientUnits="userSpaceOnUse">
<stop offset="0.32" stop-color="#2A2A2A" stop-opacity="0.21"/>
<stop offset="1" stop-color="#232323"/>
</linearGradient>
<linearGradient id="paint15_linear_1_619" x1="-33.8597" y1="27.6466" x2="410.463" y2="491.432" gradientUnits="userSpaceOnUse">
<stop offset="0.32" stop-color="#2A2A2A" stop-opacity="0.21"/>
<stop offset="1" stop-color="#232323"/>
</linearGradient>
<linearGradient id="paint16_linear_1_619" x1="-33.8597" y1="27.6466" x2="410.463" y2="491.432" gradientUnits="userSpaceOnUse">
<stop offset="0.32" stop-color="#2A2A2A" stop-opacity="0.21"/>
<stop offset="1" stop-color="#232323"/>
</linearGradient>
<linearGradient id="paint17_linear_1_619" x1="-33.8597" y1="27.6466" x2="410.463" y2="491.432" gradientUnits="userSpaceOnUse">
<stop offset="0.32" stop-color="#2A2A2A" stop-opacity="0.21"/>
<stop offset="1" stop-color="#232323"/>
</linearGradient>
<linearGradient id="paint18_linear_1_619" x1="-33.8597" y1="27.6466" x2="410.463" y2="491.432" gradientUnits="userSpaceOnUse">
<stop offset="0.32" stop-color="#2A2A2A" stop-opacity="0.21"/>
<stop offset="1" stop-color="#232323"/>
</linearGradient>
<linearGradient id="paint19_linear_1_619" x1="-33.8597" y1="27.6466" x2="410.463" y2="491.432" gradientUnits="userSpaceOnUse">
<stop offset="0.32" stop-color="#2A2A2A" stop-opacity="0.21"/>
<stop offset="1" stop-color="#232323"/>
</linearGradient>
<linearGradient id="paint20_linear_1_619" x1="-33.8597" y1="27.6466" x2="410.463" y2="491.432" gradientUnits="userSpaceOnUse">
<stop offset="0.32" stop-color="#2A2A2A" stop-opacity="0.21"/>
<stop offset="1" stop-color="#232323"/>
</linearGradient>
<linearGradient id="paint21_linear_1_619" x1="-33.8597" y1="27.6466" x2="410.463" y2="491.432" gradientUnits="userSpaceOnUse">
<stop offset="0.32" stop-color="#2A2A2A" stop-opacity="0.21"/>
<stop offset="1" stop-color="#232323"/>
</linearGradient>
<linearGradient id="paint22_linear_1_619" x1="-33.8597" y1="27.6466" x2="410.463" y2="491.432" gradientUnits="userSpaceOnUse">
<stop offset="0.32" stop-color="#2A2A2A" stop-opacity="0.21"/>
<stop offset="1" stop-color="#232323"/>
</linearGradient>
<linearGradient id="paint23_linear_1_619" x1="-33.8597" y1="27.6466" x2="410.463" y2="491.432" gradientUnits="userSpaceOnUse">
<stop offset="0.32" stop-color="#2A2A2A" stop-opacity="0.21"/>
<stop offset="1" stop-color="#232323"/>
</linearGradient>
</defs>
</svg>
