<svg width="18" height="18" viewBox="0 0 18 18" fill="none" xmlns="http://www.w3.org/2000/svg">
<path d="M3.03652 9C3.2749 9.19607 3.46699 9.44242 3.59902 9.72141C3.93652 10.4175 3.93652 11.2683 3.93652 12.0938C3.93652 13.803 4.00684 14.625 5.62402 14.625C5.77321 14.625 5.91628 14.6843 6.02177 14.7898C6.12726 14.8952 6.18652 15.0383 6.18652 15.1875C6.18652 15.3367 6.12726 15.4798 6.02177 15.5852C5.91628 15.6907 5.77321 15.75 5.62402 15.75C4.39496 15.75 3.56246 15.3183 3.14902 14.4661C2.81152 13.77 2.81152 12.9192 2.81152 12.0938C2.81152 10.3845 2.74121 9.5625 1.12402 9.5625C0.974839 9.5625 0.831765 9.50324 0.726276 9.39775C0.620787 9.29226 0.561523 9.14918 0.561523 9C0.561523 8.85082 0.620787 8.70774 0.726276 8.60225C0.831765 8.49676 0.974839 8.4375 1.12402 8.4375C2.74121 8.4375 2.81152 7.61555 2.81152 5.90625C2.81152 5.08219 2.81152 4.23 3.14902 3.53391C3.56387 2.68172 4.39637 2.25 5.62543 2.25C5.77461 2.25 5.91769 2.30926 6.02318 2.41475C6.12867 2.52024 6.18793 2.66332 6.18793 2.8125C6.18793 2.96168 6.12867 3.10476 6.02318 3.21025C5.91769 3.31574 5.77461 3.375 5.62543 3.375C4.00824 3.375 3.93793 4.19695 3.93793 5.90625C3.93793 6.73031 3.93793 7.5825 3.60043 8.27859C3.46798 8.55772 3.27541 8.80408 3.03652 9ZM16.8754 8.4375C15.2582 8.4375 15.1879 7.61555 15.1879 5.90625C15.1879 5.08219 15.1879 4.23 14.8504 3.53391C14.437 2.68172 13.6045 2.25 12.3754 2.25C12.2262 2.25 12.0832 2.30926 11.9777 2.41475C11.8722 2.52024 11.8129 2.66332 11.8129 2.8125C11.8129 2.96168 11.8722 3.10476 11.9777 3.21025C12.0832 3.31574 12.2262 3.375 12.3754 3.375C13.9926 3.375 14.0629 4.19695 14.0629 5.90625C14.0629 6.73031 14.0629 7.5825 14.4004 8.27859C14.5325 8.55758 14.7246 8.80393 14.9629 9C14.7246 9.19607 14.5325 9.44242 14.4004 9.72141C14.0629 10.4175 14.0629 11.2683 14.0629 12.0938C14.0629 13.803 13.9926 14.625 12.3754 14.625C12.2262 14.625 12.0832 14.6843 11.9777 14.7898C11.8722 14.8952 11.8129 15.0383 11.8129 15.1875C11.8129 15.3367 11.8722 15.4798 11.9777 15.5852C12.0832 15.6907 12.2262 15.75 12.3754 15.75C13.6045 15.75 14.437 15.3183 14.8504 14.4661C15.1879 13.77 15.1879 12.9192 15.1879 12.0938C15.1879 10.3845 15.2582 9.5625 16.8754 9.5625C17.0246 9.5625 17.1677 9.50324 17.2732 9.39775C17.3787 9.29226 17.4379 9.14918 17.4379 9C17.4379 8.85082 17.3787 8.70774 17.2732 8.60225C17.1677 8.49676 17.0246 8.4375 16.8754 8.4375Z" fill="white"/>
</svg>
