<svg width="252" height="52" viewBox="0 0 252 52" fill="none" xmlns="http://www.w3.org/2000/svg">
<path d="M18 5H6C4 5 3 6 3 8V17C3 19 4 20 6 20H18C20 20 21 19 21 17V8C21 6 20 5 18 5ZM17.9409 9.606L13.0291 13.178C12.7211 13.402 12.36 13.514 12 13.514C11.64 13.514 11.2779 13.402 10.9709 13.179L6.05908 9.606C5.72408 9.363 5.65004 8.893 5.89404 8.558C6.13704 8.224 6.60389 8.14801 6.94189 8.39301L11.854 11.965C11.942 12.028 12.059 12.029 12.147 11.965L17.0591 8.39301C17.3961 8.14801 17.8639 8.224 18.1069 8.558C18.3509 8.894 18.2759 9.363 17.9409 9.606Z" fill="white"/>
<path d="M39.2 5.328V7.408H35.632V9.472H39.024V11.552H35.632V13.92H39.2V16H33.168V5.328H39.2ZM40.9273 16V8.864H43.2313V9.696C43.6793 9.024 44.3459 8.688 45.2313 8.688C45.7753 8.688 46.2233 8.79467 46.5753 9.008C46.9486 9.22133 47.2366 9.552 47.4393 10C47.6633 9.62667 47.9673 9.32267 48.3513 9.088C48.7886 8.82133 49.2953 8.688 49.8713 8.688C50.7353 8.688 51.4019 8.912 51.8713 9.36C52.3619 9.82933 52.6073 10.5387 52.6073 11.488V16H50.3033V12.384C50.3033 11.712 50.2019 11.248 49.9993 10.992C49.7966 10.736 49.5193 10.608 49.1673 10.608C48.7833 10.608 48.4846 10.752 48.2713 11.04C48.0366 11.3387 47.9193 11.808 47.9193 12.448V16H45.6153V12.288C45.6153 11.6053 45.4926 11.1413 45.2473 10.896C45.0553 10.704 44.7993 10.608 44.4793 10.608C44.1486 10.608 43.8819 10.704 43.6793 10.896C43.3806 11.184 43.2313 11.6693 43.2313 12.352V16H40.9273ZM59.8836 9.664V8.864H62.1876V16H59.8836V15.136C59.4036 15.872 58.6996 16.24 57.7716 16.24C56.673 16.24 55.7823 15.8773 55.0996 15.152C54.4063 14.416 54.0596 13.5253 54.0596 12.48C54.0596 11.296 54.4276 10.336 55.1636 9.6C55.8143 8.94933 56.641 8.624 57.6436 8.624C58.625 8.624 59.3716 8.97067 59.8836 9.664ZM58.2196 10.608C57.7183 10.608 57.297 10.7787 56.9556 11.12C56.6036 11.472 56.4276 11.904 56.4276 12.416C56.4276 12.928 56.5876 13.3547 56.9076 13.696C57.2596 14.0693 57.713 14.256 58.2676 14.256C58.737 14.256 59.137 14.0907 59.4676 13.76C59.841 13.408 60.0276 12.96 60.0276 12.416C60.0276 11.872 59.8516 11.4347 59.4996 11.104C59.1583 10.7733 58.7316 10.608 58.2196 10.608ZM64.1341 8.864H66.4381V16H64.1341V8.864ZM64.3261 6.784C64.0701 6.51733 63.9421 6.19733 63.9421 5.824C63.9421 5.45067 64.0701 5.136 64.3261 4.88C64.5928 4.61333 64.9128 4.48 65.2861 4.48C65.6595 4.48 65.9741 4.61333 66.2301 4.88C66.4968 5.136 66.6301 5.45067 66.6301 5.824C66.6301 6.19733 66.4968 6.51733 66.2301 6.784C65.9741 7.04 65.6595 7.168 65.2861 7.168C64.9128 7.168 64.5928 7.04 64.3261 6.784ZM68.46 4.336H70.764V16H68.46V4.336Z" fill="#C3C3C3"/>
<path d="M32 38.848H34.864L36.56 42.624L38.368 38.848H39.936L41.744 42.736L43.536 38.848H46.384L42.64 46H40.912L39.12 42.064L37.408 46H35.68L32 38.848ZM54.8546 42.624V42.896H49.5266C49.5266 43.3973 49.676 43.7973 49.9746 44.096C50.2093 44.3307 50.5613 44.448 51.0306 44.448C51.3506 44.448 51.628 44.384 51.8626 44.256C52.0653 44.1387 52.2146 43.9787 52.3106 43.776H54.7586C54.5986 44.352 54.3106 44.8427 53.8946 45.248C53.212 45.9093 52.2413 46.24 50.9826 46.24C49.7346 46.24 48.748 45.8773 48.0226 45.152C47.3186 44.448 46.9666 43.5467 46.9666 42.448C46.9666 41.296 47.324 40.3733 48.0386 39.68C48.7533 38.9867 49.7293 38.64 50.9666 38.64C52.108 38.64 53.0253 38.9653 53.7186 39.616C54.476 40.3413 54.8546 41.344 54.8546 42.624ZM49.6066 41.424H52.5026C52.428 41.1147 52.2893 40.8587 52.0866 40.656C51.8306 40.4 51.4786 40.272 51.0306 40.272C50.5933 40.272 50.2466 40.4 49.9906 40.656C49.7773 40.8907 49.6493 41.1467 49.6066 41.424ZM56.3331 34.336H58.8931V39.536C59.4691 38.9173 60.1785 38.608 61.0211 38.608C62.0345 38.608 62.8771 38.928 63.5491 39.568C64.3278 40.304 64.7171 41.248 64.7171 42.4C64.7171 43.552 64.3331 44.5013 63.5651 45.248C62.8825 45.9093 62.0451 46.24 61.0531 46.24C60.1465 46.24 59.4265 45.8987 58.8931 45.216V46H56.3331V34.336ZM60.4611 44.064C60.8985 44.064 61.2771 43.904 61.5971 43.584C61.9278 43.2533 62.0931 42.88 62.0931 42.464C62.0931 41.984 61.9278 41.5787 61.5971 41.248C61.2878 40.9387 60.9091 40.784 60.4611 40.784C59.9811 40.784 59.5918 40.944 59.2931 41.264C58.9731 41.6053 58.8131 41.9893 58.8131 42.416C58.8131 42.896 58.9945 43.3013 59.3571 43.632C59.6878 43.92 60.0558 44.064 60.4611 44.064ZM66.1925 38.848H68.7525V42.848C68.7525 43.3067 68.8805 43.6533 69.1365 43.888C69.3392 44.0693 69.6378 44.16 70.0325 44.16C70.4272 44.16 70.7312 44.0587 70.9445 43.856C71.1898 43.6107 71.3125 43.2747 71.3125 42.848V38.848H73.8725V43.312C73.8725 44.1227 73.6432 44.7627 73.1845 45.232C72.5338 45.904 71.5045 46.24 70.0965 46.24C68.5818 46.24 67.5045 45.8987 66.8645 45.216C66.4165 44.7467 66.1925 44.112 66.1925 43.312V38.848ZM75.63 38.848H78.19V46H75.63V38.848ZM75.886 36.896C75.6087 36.608 75.47 36.2667 75.47 35.872C75.47 35.4773 75.6087 35.1413 75.886 34.864C76.174 34.576 76.5153 34.432 76.91 34.432C77.3047 34.432 77.6407 34.576 77.918 34.864C78.206 35.1413 78.35 35.4773 78.35 35.872C78.35 36.2667 78.206 36.608 77.918 36.896C77.6407 37.1733 77.3047 37.312 76.91 37.312C76.5153 37.312 76.174 37.1733 75.886 36.896ZM82.6469 45.808C82.3162 46.1387 81.9269 46.304 81.4789 46.304C81.0309 46.304 80.6415 46.1387 80.3109 45.808C79.9802 45.4773 79.8149 45.088 79.8149 44.64C79.8149 44.192 79.9802 43.8027 80.3109 43.472C80.6415 43.1413 81.0309 42.976 81.4789 42.976C81.9269 42.976 82.3215 43.1467 82.6629 43.488C82.9722 43.7973 83.1269 44.1813 83.1269 44.64C83.1269 45.0987 82.9669 45.488 82.6469 45.808ZM92.8666 34.336V46H90.3066V45.216C89.7733 45.8987 89.0533 46.24 88.1466 46.24C87.1546 46.24 86.3173 45.9093 85.6346 45.248C84.8666 44.5013 84.4826 43.552 84.4826 42.4C84.4826 41.248 84.872 40.304 85.6506 39.568C86.3226 38.928 87.1653 38.608 88.1786 38.608C89.0213 38.608 89.7306 38.9173 90.3066 39.536V34.336H92.8666ZM88.7386 44.064C89.144 44.064 89.512 43.92 89.8426 43.632C90.2053 43.3013 90.3866 42.896 90.3866 42.416C90.3866 41.9893 90.2266 41.6053 89.9066 41.264C89.608 40.944 89.2186 40.784 88.7386 40.784C88.2906 40.784 87.912 40.9387 87.6026 41.248C87.272 41.5787 87.1066 41.984 87.1066 42.464C87.1066 42.88 87.272 43.2533 87.6026 43.584C87.9226 43.904 88.3013 44.064 88.7386 44.064ZM102.214 42.624V42.896H96.886C96.886 43.3973 97.0353 43.7973 97.334 44.096C97.5687 44.3307 97.9207 44.448 98.39 44.448C98.71 44.448 98.9873 44.384 99.222 44.256C99.4247 44.1387 99.574 43.9787 99.67 43.776H102.118C101.958 44.352 101.67 44.8427 101.254 45.248C100.571 45.9093 99.6007 46.24 98.342 46.24C97.094 46.24 96.1073 45.8773 95.382 45.152C94.678 44.448 94.326 43.5467 94.326 42.448C94.326 41.296 94.6833 40.3733 95.398 39.68C96.1127 38.9867 97.0887 38.64 98.326 38.64C99.4673 38.64 100.385 38.9653 101.078 39.616C101.835 40.3413 102.214 41.344 102.214 42.624ZM96.966 41.424H99.862C99.7873 41.1147 99.6487 40.8587 99.446 40.656C99.19 40.4 98.838 40.272 98.39 40.272C97.9527 40.272 97.606 40.4 97.35 40.656C97.1367 40.8907 97.0087 41.1467 96.966 41.424ZM102.812 38.848H105.677L107.389 42.512L109.133 38.848H111.981L108.253 46H106.509L102.812 38.848ZM115.428 45.808C115.097 46.1387 114.708 46.304 114.26 46.304C113.812 46.304 113.423 46.1387 113.092 45.808C112.761 45.4773 112.596 45.088 112.596 44.64C112.596 44.192 112.761 43.8027 113.092 43.472C113.423 43.1413 113.812 42.976 114.26 42.976C114.708 42.976 115.103 43.1467 115.444 43.488C115.753 43.7973 115.908 44.1813 115.908 44.64C115.908 45.0987 115.748 45.488 115.428 45.808ZM117.104 45.408L118.016 43.632C118.336 43.8667 118.677 44.0427 119.04 44.16C119.371 44.2773 119.701 44.336 120.032 44.336C120.331 44.336 120.549 44.272 120.688 44.144C120.773 44.0587 120.816 43.9467 120.816 43.808C120.816 43.6693 120.773 43.5627 120.688 43.488C120.603 43.4027 120.379 43.3173 120.016 43.232L119.344 43.072C118.779 42.944 118.363 42.736 118.096 42.448C117.787 42.1173 117.632 41.7067 117.632 41.216C117.632 40.5227 117.856 39.9413 118.304 39.472C118.859 38.896 119.712 38.608 120.864 38.608C121.653 38.608 122.416 38.7627 123.152 39.072L122.288 40.704C121.776 40.4693 121.328 40.352 120.944 40.352C120.709 40.352 120.512 40.4 120.352 40.496C120.203 40.5813 120.128 40.6987 120.128 40.848C120.128 41.0293 120.229 41.1627 120.432 41.248C120.517 41.28 120.651 41.3173 120.832 41.36C121.013 41.392 121.163 41.424 121.28 41.456L121.744 41.584C122.203 41.712 122.555 41.8987 122.8 42.144C123.163 42.4853 123.344 42.96 123.344 43.568C123.344 44.2933 123.104 44.8853 122.624 45.344C122.027 45.9413 121.147 46.24 119.984 46.24C118.971 46.24 118.011 45.9627 117.104 45.408ZM128.949 40.944H127.493V46H124.933V40.944H124.117V38.848H124.933V36.496H127.493V38.848H128.949V40.944ZM129.911 38.848H132.471V42.848C132.471 43.3067 132.599 43.6533 132.855 43.888C133.058 44.0693 133.357 44.16 133.751 44.16C134.146 44.16 134.45 44.0587 134.663 43.856C134.909 43.6107 135.031 43.2747 135.031 42.848V38.848H137.591V43.312C137.591 44.1227 137.362 44.7627 136.903 45.232C136.253 45.904 135.223 46.24 133.815 46.24C132.301 46.24 131.223 45.8987 130.583 45.216C130.135 44.7467 129.911 44.112 129.911 43.312V38.848ZM147.445 34.336V46H144.885V45.216C144.351 45.8987 143.631 46.24 142.725 46.24C141.733 46.24 140.895 45.9093 140.213 45.248C139.445 44.5013 139.061 43.552 139.061 42.4C139.061 41.248 139.45 40.304 140.229 39.568C140.901 38.928 141.743 38.608 142.757 38.608C143.599 38.608 144.309 38.9173 144.885 39.536V34.336H147.445ZM143.317 44.064C143.722 44.064 144.09 43.92 144.421 43.632C144.783 43.3013 144.965 42.896 144.965 42.416C144.965 41.9893 144.805 41.6053 144.485 41.264C144.186 40.944 143.797 40.784 143.317 40.784C142.869 40.784 142.49 40.9387 142.181 41.248C141.85 41.5787 141.685 41.984 141.685 42.464C141.685 42.88 141.85 43.2533 142.181 43.584C142.501 43.904 142.879 44.064 143.317 44.064ZM149.208 38.848H151.768V46H149.208V38.848ZM149.464 36.896C149.187 36.608 149.048 36.2667 149.048 35.872C149.048 35.4773 149.187 35.1413 149.464 34.864C149.752 34.576 150.093 34.432 150.488 34.432C150.883 34.432 151.219 34.576 151.496 34.864C151.784 35.1413 151.928 35.4773 151.928 35.872C151.928 36.2667 151.784 36.608 151.496 36.896C151.219 37.1733 150.883 37.312 150.488 37.312C150.093 37.312 149.752 37.1733 149.464 36.896ZM157.521 40.784C157.084 40.784 156.7 40.9387 156.369 41.248C156.038 41.5573 155.873 41.9467 155.873 42.416C155.873 42.8427 156.038 43.2213 156.369 43.552C156.689 43.872 157.073 44.032 157.521 44.032C157.958 44.032 158.337 43.872 158.657 43.552C158.988 43.2427 159.153 42.864 159.153 42.416C159.153 41.968 158.988 41.5787 158.657 41.248C158.326 40.9387 157.948 40.784 157.521 40.784ZM160.705 39.792C161.441 40.5067 161.809 41.3813 161.809 42.416C161.809 43.4507 161.441 44.3307 160.705 45.056C159.905 45.8453 158.838 46.24 157.505 46.24C156.182 46.24 155.121 45.8453 154.321 45.056C153.585 44.3307 153.217 43.4507 153.217 42.416C153.217 41.3813 153.585 40.5067 154.321 39.792C155.132 39.0027 156.193 38.608 157.505 38.608C158.806 38.608 159.873 39.0027 160.705 39.792ZM169.846 38.736L169.958 38.128L171.382 38.144L170.79 41.168C170.726 41.4667 170.694 41.68 170.694 41.808C170.694 42.1813 170.812 42.368 171.046 42.368C171.206 42.368 171.366 42.2987 171.526 42.16C171.761 41.9573 171.958 41.632 172.118 41.184C172.278 40.7253 172.358 40.2827 172.358 39.856C172.358 39.3973 172.268 38.9493 172.086 38.512C171.905 38.0747 171.67 37.7173 171.382 37.44C171.062 37.1307 170.652 36.8853 170.15 36.704C169.649 36.5227 169.142 36.432 168.63 36.432C167.436 36.432 166.422 36.848 165.59 37.68C164.748 38.5227 164.326 39.5573 164.326 40.784C164.326 42.0853 164.769 43.136 165.654 43.936C166.38 44.5867 167.377 44.912 168.646 44.912C169.585 44.912 170.545 44.752 171.526 44.432L171.846 45.712C170.812 46.032 169.729 46.192 168.598 46.192C166.977 46.192 165.654 45.7173 164.63 44.768C164.097 44.2773 163.681 43.68 163.382 42.976C163.084 42.272 162.934 41.536 162.934 40.768C162.934 39.9787 163.084 39.2373 163.382 38.544C163.692 37.84 164.092 37.248 164.582 36.768C165.116 36.256 165.74 35.8613 166.454 35.584C167.18 35.296 167.884 35.152 168.566 35.152C169.281 35.152 169.974 35.2853 170.646 35.552C171.329 35.808 171.91 36.192 172.39 36.704C173.201 37.568 173.606 38.6187 173.606 39.856C173.606 41.04 173.228 42.0267 172.47 42.816C172.001 43.296 171.505 43.536 170.982 43.536C170.737 43.536 170.492 43.4667 170.246 43.328C170.001 43.1787 169.83 42.96 169.734 42.672C169.254 43.344 168.593 43.68 167.75 43.68C167.174 43.68 166.689 43.488 166.294 43.104C165.761 42.592 165.494 41.9467 165.494 41.168C165.494 40.304 165.788 39.5413 166.374 38.88C166.94 38.272 167.58 37.968 168.294 37.968C168.966 37.968 169.484 38.224 169.846 38.736ZM168.486 39.456C168.177 39.456 167.894 39.584 167.638 39.84C167.297 40.16 167.126 40.5813 167.126 41.104C167.126 41.4453 167.233 41.728 167.446 41.952C167.628 42.1333 167.857 42.224 168.134 42.224C168.444 42.224 168.726 42.096 168.982 41.84C169.324 41.4773 169.494 41.0507 169.494 40.56C169.494 40.2187 169.382 39.936 169.158 39.712C168.966 39.5413 168.742 39.456 168.486 39.456ZM180.509 38.848H183.069V45.552C183.069 46.192 183.005 46.7413 182.877 47.2C182.759 47.6587 182.498 48.096 182.093 48.512C181.335 49.28 180.285 49.664 178.941 49.664C177.543 49.664 176.429 49.2427 175.597 48.4C175.159 47.9413 174.898 47.4453 174.813 46.912H177.661C177.821 47.4027 178.221 47.648 178.861 47.648C179.341 47.648 179.719 47.5147 179.997 47.248C180.338 46.928 180.509 46.4853 180.509 45.92V45.2C179.911 45.8293 179.197 46.144 178.365 46.144C177.255 46.144 176.375 45.808 175.725 45.136C175.063 44.4533 174.733 43.584 174.733 42.528C174.733 41.3973 175.085 40.464 175.789 39.728C176.482 39.0027 177.346 38.64 178.381 38.64C179.245 38.64 179.954 38.9547 180.509 39.584V38.848ZM178.989 40.768C178.551 40.768 178.173 40.928 177.853 41.248C177.522 41.5893 177.357 41.9733 177.357 42.4C177.357 42.848 177.522 43.2373 177.853 43.568C178.162 43.8773 178.546 44.032 179.005 44.032C179.453 44.032 179.837 43.872 180.157 43.552C180.477 43.232 180.637 42.848 180.637 42.4C180.637 41.9627 180.466 41.5733 180.125 41.232C179.815 40.9227 179.437 40.768 178.989 40.768ZM184.833 46V38.848H187.393V39.712C187.937 39.0507 188.652 38.72 189.537 38.72C190.06 38.72 190.518 38.8267 190.913 39.04C191.34 39.264 191.67 39.6053 191.905 40.064C192.15 39.6267 192.476 39.296 192.881 39.072C193.297 38.8373 193.793 38.72 194.369 38.72C195.244 38.72 195.905 38.9387 196.353 39.376C196.801 39.8133 197.025 40.4693 197.025 41.344V46H194.465V42.464C194.465 41.6747 194.342 41.1627 194.097 40.928C193.916 40.768 193.692 40.688 193.425 40.688C193.126 40.688 192.876 40.784 192.673 40.976C192.364 41.2747 192.209 41.728 192.209 42.336V46H189.649V42.464C189.649 41.6747 189.537 41.1627 189.313 40.928C189.132 40.736 188.876 40.64 188.545 40.64C188.246 40.64 188.012 40.7253 187.841 40.896C187.542 41.184 187.393 41.7067 187.393 42.464V46H184.833ZM204.338 39.536V38.848H206.898V46H204.338V45.216C203.847 45.8987 203.106 46.24 202.114 46.24C201.111 46.24 200.253 45.8613 199.538 45.104C198.855 44.3787 198.514 43.504 198.514 42.48C198.514 41.3067 198.882 40.352 199.618 39.616C200.29 38.944 201.149 38.608 202.194 38.608C203.069 38.608 203.783 38.9173 204.338 39.536ZM202.77 40.784C202.343 40.784 201.97 40.9387 201.65 41.248C201.309 41.5787 201.138 41.968 201.138 42.416C201.138 42.8853 201.303 43.2747 201.634 43.584C201.975 43.904 202.359 44.064 202.786 44.064C203.223 44.064 203.607 43.8987 203.938 43.568C204.258 43.248 204.418 42.864 204.418 42.416C204.418 41.9573 204.253 41.568 203.922 41.248C203.591 40.9387 203.207 40.784 202.77 40.784ZM208.661 38.848H211.221V46H208.661V38.848ZM208.917 36.896C208.64 36.608 208.501 36.2667 208.501 35.872C208.501 35.4773 208.64 35.1413 208.917 34.864C209.205 34.576 209.547 34.432 209.941 34.432C210.336 34.432 210.672 34.576 210.949 34.864C211.237 35.1413 211.381 35.4773 211.381 35.872C211.381 36.2667 211.237 36.608 210.949 36.896C210.672 37.1733 210.336 37.312 209.941 37.312C209.547 37.312 209.205 37.1733 208.917 36.896ZM212.958 34.336H215.518V46H212.958V34.336ZM219.975 45.808C219.644 46.1387 219.255 46.304 218.807 46.304C218.359 46.304 217.97 46.1387 217.639 45.808C217.308 45.4773 217.143 45.088 217.143 44.64C217.143 44.192 217.308 43.8027 217.639 43.472C217.97 43.1413 218.359 42.976 218.807 42.976C219.255 42.976 219.65 43.1467 219.991 43.488C220.3 43.7973 220.455 44.1813 220.455 44.64C220.455 45.0987 220.295 45.488 219.975 45.808ZM227.507 43.696V45.84C226.963 46.1067 226.371 46.24 225.731 46.24C224.6 46.24 223.661 45.8773 222.915 45.152C222.179 44.4373 221.811 43.5467 221.811 42.48C221.811 41.3813 222.195 40.4587 222.963 39.712C223.72 38.9867 224.68 38.624 225.843 38.624C226.419 38.624 226.973 38.7573 227.507 39.024V41.168C227.069 40.8587 226.627 40.704 226.179 40.704C225.677 40.704 225.261 40.8693 224.931 41.2C224.6 41.5307 224.435 41.9413 224.435 42.432C224.435 42.9013 224.584 43.3013 224.883 43.632C225.224 43.9947 225.661 44.176 226.195 44.176C226.696 44.176 227.133 44.016 227.507 43.696ZM232.974 40.784C232.537 40.784 232.153 40.9387 231.822 41.248C231.491 41.5573 231.326 41.9467 231.326 42.416C231.326 42.8427 231.491 43.2213 231.822 43.552C232.142 43.872 232.526 44.032 232.974 44.032C233.411 44.032 233.79 43.872 234.11 43.552C234.441 43.2427 234.606 42.864 234.606 42.416C234.606 41.968 234.441 41.5787 234.11 41.248C233.779 40.9387 233.401 40.784 232.974 40.784ZM236.158 39.792C236.894 40.5067 237.262 41.3813 237.262 42.416C237.262 43.4507 236.894 44.3307 236.158 45.056C235.358 45.8453 234.291 46.24 232.958 46.24C231.635 46.24 230.574 45.8453 229.774 45.056C229.038 44.3307 228.67 43.4507 228.67 42.416C228.67 41.3813 229.038 40.5067 229.774 39.792C230.585 39.0027 231.646 38.608 232.958 38.608C234.259 38.608 235.326 39.0027 236.158 39.792ZM238.739 46V38.848H241.299V39.712C241.843 39.0507 242.558 38.72 243.443 38.72C243.966 38.72 244.425 38.8267 244.819 39.04C245.246 39.264 245.577 39.6053 245.811 40.064C246.057 39.6267 246.382 39.296 246.787 39.072C247.203 38.8373 247.699 38.72 248.275 38.72C249.15 38.72 249.811 38.9387 250.259 39.376C250.707 39.8133 250.931 40.4693 250.931 41.344V46H248.371V42.464C248.371 41.6747 248.249 41.1627 248.003 40.928C247.822 40.768 247.598 40.688 247.331 40.688C247.033 40.688 246.782 40.784 246.579 40.976C246.27 41.2747 246.115 41.728 246.115 42.336V46H243.555V42.464C243.555 41.6747 243.443 41.1627 243.219 40.928C243.038 40.736 242.782 40.64 242.451 40.64C242.153 40.64 241.918 40.7253 241.747 40.896C241.449 41.184 241.299 41.7067 241.299 42.464V46H238.739Z" fill="white"/>
</svg>
