<svg width="88" height="26" viewBox="0 0 88 26" fill="none" xmlns="http://www.w3.org/2000/svg">
<g clip-path="url(#clip0_1_987)">
<path d="M11.8811 5.44702C10.7721 6.22697 9.51524 7.11099 8.84178 8.57355C7.67206 11.1252 11.2353 13.9085 11.3876 14.0257C11.423 14.053 11.4654 14.0666 11.5076 14.0666C11.5525 14.0666 11.5974 14.0512 11.6339 14.0207C11.7046 13.9615 11.7247 13.861 11.6822 13.7792C11.6693 13.7543 10.3903 11.2699 10.4378 9.48766C10.4546 8.86689 11.3234 8.16268 12.243 7.41713C13.0854 6.73426 14.0402 5.9603 14.5989 5.05491C15.8253 3.06196 14.4622 1.1023 14.4483 1.0827C14.3941 1.00667 14.2942 0.979157 14.2088 1.01661C14.1234 1.0543 14.0761 1.1466 14.0956 1.23786C14.0984 1.25085 14.3634 2.54676 13.6258 3.8819C13.322 4.43362 12.6543 4.90322 11.8811 5.44702Z" fill="#DB380E"/>
<path d="M16.5532 6.32586C16.6314 6.26694 16.6544 6.15945 16.6071 6.07367C16.5597 5.98789 16.4566 5.95006 16.365 5.98484C16.1766 6.05647 11.7517 7.76211 11.7517 9.82298C11.7517 11.2436 12.3586 11.9941 12.8017 12.5422C12.9755 12.7571 13.1255 12.9428 13.175 13.1012C13.3142 13.5579 12.9844 14.3834 12.8457 14.663C12.8057 14.7433 12.8253 14.8407 12.8933 14.8994C12.9301 14.9312 12.9759 14.9473 13.0219 14.9473C13.061 14.9473 13.1003 14.9357 13.1342 14.912C13.2103 14.8592 14.9936 13.5983 14.6738 12.0792C14.5546 11.5018 14.2709 11.0799 14.0205 10.7077C13.6327 10.1309 13.3525 9.71423 13.7775 8.94473C14.2754 8.04716 16.5304 6.34292 16.5532 6.32586Z" fill="#DB380E"/>
<path d="M5.03513 14.9798C4.95929 15.207 4.9951 15.4322 5.13859 15.6316C5.61826 16.2975 7.31735 16.6642 9.92304 16.6642C9.92318 16.6642 9.92328 16.6642 9.92337 16.6642C10.2764 16.6642 10.6492 16.6572 11.031 16.6435C15.197 16.4944 16.7422 15.1965 16.806 15.1414C16.8754 15.0812 16.894 14.9811 16.8508 14.9001C16.8076 14.8192 16.7145 14.7785 16.6254 14.803C15.1582 15.2036 12.4185 15.3458 10.5182 15.3458C8.39177 15.3458 7.30886 15.1926 7.04374 15.0795C7.17977 14.8927 8.01883 14.5591 9.05857 14.3546C9.15795 14.3351 9.22624 14.2433 9.2164 14.1426C9.20656 14.0418 9.1219 13.9649 9.0206 13.9649C8.41113 13.9649 5.35464 14.0138 5.03513 14.9798Z" fill="#73A1FB"/>
<path d="M18.9754 13.6431C18.1162 13.6431 17.3013 14.0738 17.267 14.092C17.1876 14.1346 17.1473 14.2257 17.1691 14.3132C17.191 14.4007 17.2696 14.4621 17.3597 14.4622C17.3779 14.4622 19.1926 14.4771 19.357 15.5139C19.5026 16.4084 17.64 17.8577 16.91 18.3407C16.8311 18.3928 16.8005 18.4936 16.8371 18.5808C16.8683 18.655 16.9405 18.7014 17.0185 18.7014C17.032 18.7014 17.0458 18.7 17.0595 18.6971C17.2328 18.66 21.2973 17.7643 20.8676 15.3978C20.6054 13.9475 19.6939 13.6431 18.9754 13.6431Z" fill="#73A1FB"/>
<path d="M16.1882 18.051C16.2024 17.9752 16.1708 17.8981 16.1077 17.8538L15.1331 17.1712C15.0856 17.1379 15.0256 17.1275 14.9698 17.1422C14.9596 17.1448 13.9404 17.4127 12.4608 17.577C11.8735 17.6429 11.2158 17.6777 10.5585 17.6777C9.0792 17.6777 8.11198 17.5039 7.97112 17.3764C7.95246 17.3406 7.95837 17.3243 7.9617 17.3152C7.98729 17.2441 8.12445 17.1595 8.21285 17.1261C8.3105 17.0899 8.36314 16.9839 8.33276 16.8843C8.30248 16.7846 8.19978 16.726 8.09843 16.7503C7.1208 16.9862 6.64277 17.3161 6.67755 17.7308C6.73933 18.4661 8.4424 18.8435 9.88217 18.9433C10.0892 18.9574 10.3131 18.9646 10.5476 18.9646C10.5477 18.9646 10.5478 18.9646 10.5479 18.9646C12.942 18.9646 16.0112 18.2134 16.0419 18.2058C16.1169 18.1875 16.174 18.127 16.1882 18.051Z" fill="#73A1FB"/>
<path d="M8.84073 19.6291C8.91456 19.5811 8.94728 19.4898 8.92107 19.4058C8.89496 19.3217 8.81635 19.2665 8.72804 19.2677C8.59702 19.2711 7.44605 19.3231 7.36547 20.0559C7.3411 20.2749 7.40382 20.475 7.55199 20.6505C7.96524 21.1403 9.08078 21.4314 10.9617 21.5404C11.1843 21.5538 11.4103 21.5605 11.6336 21.5605C14.025 21.5605 15.6355 20.8117 15.703 20.7798C15.7684 20.7489 15.8115 20.6846 15.8153 20.6125C15.8192 20.5403 15.7831 20.4718 15.7214 20.4341L14.4898 19.6822C14.447 19.6561 14.3959 19.6475 14.3472 19.6575C14.3394 19.6591 13.5574 19.8213 12.3772 19.9815C12.1539 20.0119 11.8742 20.0273 11.5461 20.0273C10.3672 20.0273 9.05588 19.8347 8.8044 19.7086C8.80074 19.685 8.80538 19.6551 8.84073 19.6291Z" fill="#73A1FB"/>
<path d="M10.5191 23.8211C15.9966 23.8165 18.9365 22.8424 19.5028 22.2294C19.7033 22.0126 19.725 21.8072 19.708 21.6731C19.6659 21.3431 19.3653 21.1411 19.3312 21.1192C19.249 21.0663 19.1386 21.0801 19.0745 21.1541C19.0105 21.2281 19.009 21.3362 19.0732 21.4101C19.1078 21.4545 19.1278 21.5289 19.0267 21.63C18.8003 21.8415 16.5168 22.4833 12.7147 22.6762C12.1939 22.7032 11.6476 22.717 11.0911 22.7171C7.68693 22.7171 5.19556 22.2508 4.86851 21.9791C4.99456 21.798 5.87581 21.5086 6.81299 21.3449C6.9186 21.3265 6.98994 21.227 6.97358 21.121C6.95722 21.0152 6.85958 20.9423 6.75285 20.9561C6.72641 20.9597 6.63669 20.965 6.53281 20.9714C4.9865 21.0658 3.19957 21.2762 3.10633 22.073C3.07802 22.3158 3.15016 22.5362 3.32083 22.728C3.73844 23.1972 4.93878 23.8211 10.5189 23.8211C10.519 23.8211 10.519 23.8211 10.5191 23.8211Z" fill="#73A1FB"/>
<path d="M20.5788 22.4022C20.5014 22.3664 20.4099 22.3845 20.3521 22.4468C20.3441 22.4555 19.5206 23.3166 17.0444 23.8223C16.0965 24.0123 14.3171 24.1086 11.7557 24.1086C9.1895 24.1086 6.74763 24.0076 6.7233 24.0066C6.6213 24.0016 6.53407 24.0758 6.52019 24.1762C6.50627 24.2765 6.57096 24.3711 6.66944 24.3945C6.69485 24.4005 9.25391 25.0001 12.7529 25.0001C14.431 25.0001 16.0641 24.8638 17.6067 24.5948C20.483 24.0906 20.6844 22.6644 20.6915 22.6039C20.7016 22.5194 20.6561 22.438 20.5788 22.4022Z" fill="#73A1FB"/>
</g>
<path d="M43.56 14.9V6.66H48.32V15.96C48.32 17.12 47.92 18.1133 47.12 18.94C46.2533 19.8467 45.14 20.3 43.78 20.3C42.5 20.3 41.3533 19.94 40.34 19.22L39.8 18.84L41.56 14.72L41.66 15.06C41.7667 15.4467 41.9133 15.72 42.1 15.88C42.26 16.04 42.4667 16.12 42.72 16.12C42.96 16.12 43.1467 16.04 43.28 15.88C43.4667 15.6667 43.56 15.34 43.56 14.9ZM57.0284 11.78L57.1284 11.72C57.0218 11.44 56.9684 11.1733 56.9684 10.92V10.66H61.4684V20H56.9884L57.0084 19.68C57.0351 19.4 57.0951 19.1133 57.1884 18.82H57.0484C56.2751 19.78 55.3418 20.26 54.2484 20.26C53.2084 20.26 52.3284 19.8933 51.6084 19.16C50.6751 18.2 50.2084 16.94 50.2084 15.38C50.2084 13.78 50.6951 12.4933 51.6684 11.52C52.4151 10.7733 53.3351 10.4 54.4284 10.4C55.4818 10.4 56.3484 10.86 57.0284 11.78ZM54.7284 15.32C54.7284 15.7067 54.8618 16.0333 55.1284 16.3C55.3418 16.5133 55.6018 16.62 55.9084 16.62C56.2151 16.62 56.4751 16.52 56.6884 16.32C56.9818 16.0267 57.1284 15.68 57.1284 15.28C57.1284 14.8667 56.9951 14.54 56.7284 14.3C56.5018 14.1 56.2418 14 55.9484 14C55.6151 14 55.3418 14.1067 55.1284 14.32C54.8618 14.5867 54.7284 14.92 54.7284 15.32ZM66.3419 20L62.2219 10.66H67.1219L68.1419 14.12C68.2085 14.3867 68.2685 14.7 68.3219 15.06H68.4619C68.4619 14.7933 68.5152 14.48 68.6219 14.12L69.6619 10.66H74.5419L70.4819 20H66.3419ZM81.7159 11.78L81.8159 11.72C81.7093 11.44 81.6559 11.1733 81.6559 10.92V10.66H86.1559V20H81.6759L81.6959 19.68C81.7226 19.4 81.7826 19.1133 81.8759 18.82H81.7359C80.9626 19.78 80.0293 20.26 78.9359 20.26C77.8959 20.26 77.0159 19.8933 76.2959 19.16C75.3626 18.2 74.8959 16.94 74.8959 15.38C74.8959 13.78 75.3826 12.4933 76.3559 11.52C77.1026 10.7733 78.0226 10.4 79.1159 10.4C80.1693 10.4 81.0359 10.86 81.7159 11.78ZM79.4159 15.32C79.4159 15.7067 79.5493 16.0333 79.8159 16.3C80.0293 16.5133 80.2893 16.62 80.5959 16.62C80.9026 16.62 81.1626 16.52 81.3759 16.32C81.6693 16.0267 81.8159 15.68 81.8159 15.28C81.8159 14.8667 81.6826 14.54 81.4159 14.3C81.1893 14.1 80.9293 14 80.6359 14C80.3026 14 80.0293 14.1067 79.8159 14.32C79.5493 14.5867 79.4159 14.92 79.4159 15.32Z" fill="white"/>
<defs>
<clipPath id="clip0_1_987">
<rect width="24" height="24" fill="white" transform="translate(0 1)"/>
</clipPath>
</defs>
</svg>
