<svg width="112" height="52" viewBox="0 0 112 52" fill="none" xmlns="http://www.w3.org/2000/svg">
<path d="M12 2.5C7.313 2.5 3.5 6.313 3.5 11C3.5 15.983 8.129 19.041 11.192 21.064L11.722 21.416C11.806 21.472 11.903 21.5 11.999 21.5C12.095 21.5 12.192 21.472 12.276 21.416L12.806 21.064C15.869 19.041 20.498 15.983 20.498 11C20.5 6.313 16.687 2.5 12 2.5ZM12 13.5C10.619 13.5 9.5 12.381 9.5 11C9.5 9.619 10.619 8.5 12 8.5C13.381 8.5 14.5 9.619 14.5 11C14.5 12.381 13.381 13.5 12 13.5Z" fill="white"/>
<path d="M32.8 15.68L37.632 7.408H32.928V5.328H41.408L35.088 16.24L32.8 15.68ZM45.5496 16.24C45.1443 16.24 44.8083 16.224 44.5416 16.192C44.2856 16.1707 43.9763 16.0907 43.6136 15.952C43.2616 15.8133 42.9363 15.6107 42.6376 15.344C41.955 14.7253 41.6136 13.952 41.6136 13.024C41.6136 12.3093 41.8536 11.7013 42.3336 11.2C42.6856 10.8373 43.1283 10.5707 43.6616 10.4C43.2776 10.24 42.9523 10.0213 42.6856 9.744C42.2483 9.296 42.0296 8.73067 42.0296 8.048C42.0296 7.248 42.291 6.58667 42.8136 6.064C43.4536 5.41333 44.3763 5.088 45.5816 5.088C46.7656 5.088 47.6776 5.41333 48.3176 6.064C48.8403 6.58667 49.1016 7.248 49.1016 8.048C49.1016 8.73067 48.883 9.296 48.4456 9.744C48.179 10.0213 47.8536 10.24 47.4696 10.4C48.003 10.5707 48.4456 10.8373 48.7976 11.2C49.2776 11.7013 49.5176 12.3093 49.5176 13.024C49.5176 13.952 49.1763 14.7253 48.4936 15.344C48.067 15.728 47.6296 15.9733 47.1816 16.08C46.7336 16.1867 46.1896 16.24 45.5496 16.24ZM46.4936 7.248C46.2376 7.024 45.9283 6.912 45.5656 6.912C45.203 6.912 44.8883 7.02933 44.6216 7.264C44.355 7.52 44.2216 7.824 44.2216 8.176C44.2216 8.53867 44.355 8.84267 44.6216 9.088C44.8883 9.32267 45.203 9.44 45.5656 9.44C45.939 9.44 46.2483 9.32267 46.4936 9.088C46.7603 8.832 46.8936 8.528 46.8936 8.176C46.8936 7.824 46.7603 7.51467 46.4936 7.248ZM45.5336 11.392C45.1176 11.392 44.7816 11.52 44.5256 11.776C44.2483 12.0533 44.1096 12.4053 44.1096 12.832C44.1096 13.28 44.2483 13.6373 44.5256 13.904C44.7923 14.16 45.139 14.288 45.5656 14.288C45.9923 14.288 46.339 14.16 46.6056 13.904C46.883 13.648 47.0216 13.2853 47.0216 12.816C47.0216 12.3787 46.883 12.032 46.6056 11.776C46.3496 11.52 45.9923 11.392 45.5336 11.392ZM58.2474 5.328V7.408H54.6474L54.3594 8.832C54.658 8.77867 54.9514 8.752 55.2394 8.752C56.3807 8.752 57.2874 9.09867 57.9594 9.792C58.61 10.4427 58.9354 11.3013 58.9354 12.368C58.9354 13.4773 58.5727 14.3947 57.8474 15.12C57.09 15.8667 56.0127 16.24 54.6154 16.24C53.25 16.24 52.066 15.8507 51.0634 15.072L51.6234 12.784C51.954 13.1573 52.2954 13.4507 52.6474 13.664C53.1274 13.9733 53.666 14.128 54.2634 14.128C54.914 14.128 55.4207 13.984 55.7834 13.696C56.1994 13.376 56.4074 12.928 56.4074 12.352C56.4074 11.84 56.226 11.424 55.8634 11.104C55.4367 10.7307 54.8447 10.544 54.0874 10.544C53.3194 10.544 52.594 10.7307 51.9114 11.104L52.9994 5.328H58.2474ZM64.5611 5.088L67.2011 5.36L64.3851 8.864C64.7158 8.74667 65.0891 8.688 65.5051 8.688C66.6038 8.688 67.4838 9.02933 68.1451 9.712C68.7638 10.352 69.0731 11.1733 69.0731 12.176C69.0731 13.3493 68.7371 14.304 68.0651 15.04C67.3291 15.84 66.2358 16.24 64.7851 16.24C63.2491 16.24 62.0971 15.824 61.3291 14.992C60.7105 14.3307 60.4011 13.4667 60.4011 12.4C60.4011 11.632 60.5451 10.944 60.8331 10.336C61.1318 9.71733 61.5585 9.04 62.1131 8.304L64.5611 5.088ZM63.4091 13.728C63.7611 14.0587 64.1931 14.224 64.7051 14.224C65.2171 14.224 65.6438 14.064 65.9851 13.744C66.3585 13.392 66.5451 12.9227 66.5451 12.336C66.5451 11.792 66.3585 11.3547 65.9851 11.024C65.6438 10.7253 65.2171 10.576 64.7051 10.576C64.1611 10.576 63.7291 10.7307 63.4091 11.04C63.0465 11.3707 62.8651 11.824 62.8651 12.4C62.8651 12.9547 63.0465 13.3973 63.4091 13.728ZM78.9028 10.672C78.9028 12.6347 78.3908 14.1227 77.3668 15.136C76.6094 15.872 75.6548 16.24 74.5028 16.24C73.3721 16.24 72.4281 15.872 71.6708 15.136C70.6468 14.1227 70.1348 12.6347 70.1348 10.672C70.1348 8.67733 70.6468 7.184 71.6708 6.192C72.4281 5.456 73.3721 5.088 74.5028 5.088C75.6548 5.088 76.6094 5.456 77.3668 6.192C78.3908 7.184 78.9028 8.67733 78.9028 10.672ZM75.5108 7.6C75.2334 7.33333 74.9028 7.2 74.5188 7.2C74.1348 7.2 73.8041 7.33333 73.5268 7.6C72.9294 8.18667 72.6308 9.20533 72.6308 10.656C72.6308 12.1173 72.9294 13.1413 73.5268 13.728C73.8041 13.9947 74.1348 14.128 74.5188 14.128C74.9028 14.128 75.2334 13.9947 75.5108 13.728C76.1081 13.1413 76.4068 12.1173 76.4068 10.656C76.4068 9.20533 76.1081 8.18667 75.5108 7.6ZM84.2149 5.328H86.6789V13.92H89.9909V16H84.2149V5.328ZM89.8445 8.864H92.3725L94.1805 12.688L95.9885 8.864H98.5165L94.9005 16H93.4605L89.8445 8.864ZM99.6029 8.864H101.907V16H99.6029V8.864ZM99.7949 6.784C99.5389 6.51733 99.4109 6.19733 99.4109 5.824C99.4109 5.45067 99.5389 5.136 99.7949 4.88C100.062 4.61333 100.382 4.48 100.755 4.48C101.128 4.48 101.443 4.61333 101.699 4.88C101.966 5.136 102.099 5.45067 102.099 5.824C102.099 6.19733 101.966 6.51733 101.699 6.784C101.443 7.04 101.128 7.168 100.755 7.168C100.382 7.168 100.062 7.04 99.7949 6.784ZM103.001 8.864H105.529L107.337 12.688L109.145 8.864H111.673L108.057 16H106.617L103.001 8.864Z" fill="#C3C3C3"/>
<path d="M42.192 35.328V41.648C42.192 43.088 41.7973 44.2133 41.008 45.024C40.2187 45.8347 39.1093 46.24 37.68 46.24C36.2507 46.24 35.1413 45.8347 34.352 45.024C33.5627 44.2133 33.168 43.088 33.168 41.648V35.328H35.632V41.584C35.632 42.3947 35.8187 42.992 36.192 43.376C36.544 43.7493 37.04 43.936 37.68 43.936C38.32 43.936 38.816 43.7493 39.168 43.376C39.5413 42.992 39.728 42.3947 39.728 41.584V35.328H42.192ZM44.3194 34.336H46.6234V41.488L49.2154 38.864H52.2394L48.8474 42.096L52.4794 46H49.3754L46.6234 42.928V46H44.3194V34.336ZM53.3179 46V38.864H55.6219V39.984C55.8459 39.5467 56.1445 39.216 56.5179 38.992C56.8379 38.7893 57.2485 38.688 57.7499 38.688C58.0165 38.688 58.2672 38.7253 58.5019 38.8L58.3739 40.96C58.0539 40.7893 57.7072 40.704 57.3339 40.704C56.8645 40.704 56.4805 40.864 56.1819 41.184C55.8085 41.5787 55.6219 42.2187 55.6219 43.104V46H53.3179ZM64.6961 39.664V38.864H67.0001V46H64.6961V45.136C64.2161 45.872 63.5121 46.24 62.5841 46.24C61.4855 46.24 60.5948 45.8773 59.9121 45.152C59.2188 44.416 58.8721 43.5253 58.8721 42.48C58.8721 41.296 59.2401 40.336 59.9761 39.6C60.6268 38.9493 61.4535 38.624 62.4561 38.624C63.4375 38.624 64.1841 38.9707 64.6961 39.664ZM63.0321 40.608C62.5308 40.608 62.1095 40.7787 61.7681 41.12C61.4161 41.472 61.2401 41.904 61.2401 42.416C61.2401 42.928 61.4001 43.3547 61.7201 43.696C62.0721 44.0693 62.5255 44.256 63.0801 44.256C63.5495 44.256 63.9495 44.0907 64.2801 43.76C64.6535 43.408 64.8401 42.96 64.8401 42.416C64.8401 41.872 64.6641 41.4347 64.3121 41.104C63.9708 40.7733 63.5441 40.608 63.0321 40.608ZM68.9466 38.864H71.2506V46H68.9466V38.864ZM69.1386 36.784C68.8826 36.5173 68.7546 36.1973 68.7546 35.824C68.7546 35.4507 68.8826 35.136 69.1386 34.88C69.4053 34.6133 69.7253 34.48 70.0986 34.48C70.472 34.48 70.7866 34.6133 71.0426 34.88C71.3093 35.136 71.4426 35.4507 71.4426 35.824C71.4426 36.1973 71.3093 36.5173 71.0426 36.784C70.7866 37.04 70.472 37.168 70.0986 37.168C69.7253 37.168 69.4053 37.04 69.1386 36.784ZM73.2085 46V38.864H75.5125V39.712C76.0565 39.0187 76.7925 38.672 77.7205 38.672C78.6058 38.672 79.2885 38.912 79.7685 39.392C80.2485 39.872 80.4885 40.5707 80.4885 41.488V46H78.1845V42.336C78.1845 41.6427 78.0565 41.168 77.8005 40.912C77.5872 40.6987 77.2938 40.592 76.9205 40.592C76.5152 40.592 76.1952 40.72 75.9605 40.976C75.6618 41.2747 75.5125 41.728 75.5125 42.336V46H73.2085ZM84.3506 41.456H87.4706C87.3853 41.1147 87.2306 40.8373 87.0066 40.624C86.7186 40.3573 86.356 40.224 85.9186 40.224C85.4493 40.224 85.06 40.3787 84.7506 40.688C84.5373 40.912 84.404 41.168 84.3506 41.456ZM89.5986 42.592V42.832H84.2706C84.2706 43.3227 84.4146 43.728 84.7026 44.048C84.98 44.3467 85.3746 44.496 85.8866 44.496C86.2706 44.496 86.58 44.4267 86.8146 44.288C86.996 44.192 87.1613 43.9947 87.3106 43.696L89.4866 43.92C89.2413 44.6987 88.7826 45.296 88.1106 45.712C87.524 46.064 86.772 46.24 85.8546 46.24C84.6386 46.24 83.6893 45.8987 83.0066 45.216C82.292 44.5013 81.9346 43.584 81.9346 42.464C81.9346 41.3333 82.2973 40.3947 83.0226 39.648C83.7053 38.9653 84.6173 38.624 85.7586 38.624C86.964 38.624 87.908 38.9813 88.5906 39.696C89.2626 40.4107 89.5986 41.376 89.5986 42.592Z" fill="#C3C3C3"/>
</svg>
