<svg width="143" height="35" viewBox="0 0 143 35" fill="none" xmlns="http://www.w3.org/2000/svg">
<path d="M138.091 23.2401C137.227 23.2401 136.472 23.0455 135.827 22.6561C135.182 22.2668 134.68 21.7308 134.323 21.0481C133.971 20.3601 133.795 19.5708 133.795 18.6801C133.795 17.7735 133.976 16.9788 134.339 16.2961C134.702 15.6135 135.206 15.0801 135.851 14.6961C136.496 14.3121 137.243 14.1201 138.091 14.1201C138.96 14.1201 139.718 14.3148 140.363 14.7041C141.008 15.0935 141.51 15.6321 141.867 16.3201C142.224 17.0028 142.403 17.7895 142.403 18.6801C142.403 19.5761 142.222 20.3681 141.859 21.0561C141.502 21.7388 141 22.2748 140.355 22.6641C139.71 23.0481 138.955 23.2401 138.091 23.2401ZM138.091 21.4321C138.859 21.4321 139.43 21.1761 139.803 20.6641C140.176 20.1521 140.363 19.4908 140.363 18.6801C140.363 17.8428 140.174 17.1761 139.795 16.6801C139.416 16.1788 138.848 15.9281 138.091 15.9281C137.574 15.9281 137.147 16.0455 136.811 16.2801C136.48 16.5095 136.235 16.8321 136.075 17.2481C135.915 17.6588 135.835 18.1361 135.835 18.6801C135.835 19.5175 136.024 20.1868 136.403 20.6881C136.787 21.1841 137.35 21.4321 138.091 21.4321Z" fill="white"/>
<path d="M129.951 13.048V11.28H131.879V13.048H129.951ZM129.951 23V14.36H131.879V23H129.951Z" fill="white"/>
<path d="M123.38 23.24C122.585 23.24 121.892 23.04 121.3 22.64C120.708 22.24 120.249 21.696 119.924 21.008C119.598 20.32 119.436 19.544 119.436 18.68C119.436 17.8053 119.598 17.0266 119.924 16.344C120.254 15.656 120.721 15.1146 121.324 14.72C121.926 14.32 122.636 14.12 123.452 14.12C124.273 14.12 124.961 14.32 125.516 14.72C126.076 15.1146 126.5 15.656 126.788 16.344C127.076 17.032 127.22 17.8106 127.22 18.68C127.22 19.5386 127.076 20.3146 126.788 21.008C126.5 21.696 126.07 22.24 125.5 22.64C124.929 23.04 124.222 23.24 123.38 23.24ZM123.676 21.512C124.193 21.512 124.609 21.3946 124.924 21.16C125.244 20.92 125.476 20.5866 125.62 20.16C125.769 19.7333 125.844 19.24 125.844 18.68C125.844 18.1146 125.769 17.6213 125.62 17.2C125.476 16.7733 125.249 16.4426 124.94 16.208C124.63 15.968 124.23 15.848 123.74 15.848C123.222 15.848 122.796 15.976 122.46 16.232C122.124 16.4826 121.876 16.824 121.716 17.256C121.556 17.6826 121.476 18.1573 121.476 18.68C121.476 19.208 121.553 19.688 121.708 20.12C121.868 20.5466 122.11 20.8853 122.436 21.136C122.761 21.3866 123.174 21.512 123.676 21.512ZM125.844 23V16.936H125.604V11.48H127.548V23H125.844Z" fill="white"/>
<path d="M113.142 23.2481C112.502 23.2481 111.974 23.1414 111.558 22.9281C111.142 22.7148 110.812 22.4428 110.566 22.1121C110.321 21.7814 110.14 21.4294 110.022 21.0561C109.905 20.6828 109.828 20.3308 109.79 20.0001C109.758 19.6641 109.742 19.3921 109.742 19.1841V14.3601H111.694V18.5201C111.694 18.7868 111.713 19.0881 111.75 19.4241C111.788 19.7548 111.873 20.0748 112.006 20.3841C112.145 20.6881 112.348 20.9388 112.614 21.1361C112.886 21.3334 113.252 21.4321 113.71 21.4321C113.956 21.4321 114.198 21.3921 114.438 21.3121C114.678 21.2321 114.894 21.0961 115.086 20.9041C115.284 20.7068 115.441 20.4374 115.558 20.0961C115.676 19.7548 115.734 19.3228 115.734 18.8001L116.878 19.2881C116.878 20.0241 116.734 20.6908 116.446 21.2881C116.164 21.8854 115.745 22.3628 115.19 22.7201C114.636 23.0721 113.953 23.2481 113.142 23.2481ZM115.966 23.0001V20.3201H115.734V14.3601H117.67V23.0001H115.966Z" fill="white"/>
<path d="M108.044 23C107.473 23.1066 106.913 23.152 106.364 23.136C105.82 23.1253 105.332 23.0266 104.9 22.84C104.468 22.648 104.14 22.3466 103.916 21.936C103.718 21.5626 103.614 21.1813 103.604 20.792C103.593 20.4026 103.588 19.9626 103.588 19.472V11.96H105.508V19.36C105.508 19.7066 105.51 20.0106 105.516 20.272C105.526 20.5333 105.582 20.7466 105.684 20.912C105.876 21.232 106.182 21.4106 106.604 21.448C107.025 21.4853 107.505 21.464 108.044 21.384V23ZM102.02 15.872V14.36H108.044V15.872H102.02Z" fill="white"/>
<path d="M96.727 23.24C95.8843 23.24 95.1243 23.0934 94.447 22.8C93.775 22.5067 93.2203 22.088 92.783 21.544C92.351 20.9947 92.0763 20.344 91.959 19.592L93.959 19.288C94.1297 19.9707 94.479 20.4987 95.007 20.872C95.5403 21.2454 96.1537 21.432 96.847 21.432C97.2577 21.432 97.6443 21.368 98.007 21.24C98.3697 21.112 98.663 20.9254 98.887 20.68C99.1163 20.4347 99.231 20.1334 99.231 19.776C99.231 19.616 99.2043 19.4694 99.151 19.336C99.0976 19.1974 99.0177 19.0747 98.911 18.968C98.8097 18.8614 98.6763 18.7654 98.511 18.68C98.351 18.5894 98.1643 18.512 97.951 18.448L94.975 17.568C94.719 17.4934 94.4416 17.3947 94.143 17.272C93.8496 17.144 93.5696 16.9707 93.303 16.752C93.0416 16.528 92.8257 16.2454 92.655 15.904C92.4897 15.5574 92.407 15.1307 92.407 14.624C92.407 13.8827 92.5937 13.2614 92.967 12.76C93.3457 12.2534 93.8523 11.8747 94.487 11.624C95.127 11.3734 95.8363 11.2507 96.615 11.256C97.4043 11.2614 98.1083 11.3974 98.727 11.664C99.3456 11.9254 99.863 12.3067 100.279 12.808C100.695 13.3094 100.988 13.9147 101.159 14.624L99.087 14.984C99.0016 14.5787 98.8363 14.2347 98.591 13.952C98.351 13.664 98.055 13.4454 97.703 13.296C97.3563 13.1467 96.9857 13.0667 96.591 13.056C96.207 13.0507 95.8496 13.1094 95.519 13.232C95.1936 13.3494 94.9296 13.52 94.727 13.744C94.5296 13.968 94.431 14.2294 94.431 14.528C94.431 14.8107 94.5163 15.0427 94.687 15.224C94.8577 15.4 95.0683 15.5414 95.319 15.648C95.575 15.7494 95.8336 15.8347 96.095 15.904L98.159 16.48C98.4417 16.5547 98.759 16.656 99.111 16.784C99.463 16.912 99.8017 17.0907 100.127 17.32C100.452 17.5494 100.719 17.8507 100.927 18.224C101.14 18.5974 101.247 19.072 101.247 19.648C101.247 20.2454 101.122 20.7707 100.871 21.224C100.626 21.672 100.292 22.0454 99.871 22.344C99.4496 22.6427 98.967 22.8667 98.423 23.016C97.8843 23.1654 97.319 23.24 96.727 23.24Z" fill="white"/>
<path d="M84.9355 13.048V11.28H86.8635V13.048H84.9355ZM84.9355 23V14.36H86.8635V23H84.9355Z" fill="white"/>
<path d="M77.8998 23.24C76.9824 23.24 76.1744 23.0533 75.4758 22.68C74.7824 22.3066 74.2384 21.7813 73.8438 21.104C73.4544 20.4266 73.2598 19.632 73.2598 18.72V11.496L75.2118 11.48V18.672C75.2118 19.104 75.2838 19.4906 75.4278 19.832C75.5771 20.1733 75.7771 20.464 76.0278 20.704C76.2784 20.9386 76.5664 21.1173 76.8918 21.24C77.2171 21.3626 77.5531 21.424 77.8998 21.424C78.2571 21.424 78.5958 21.3626 78.9158 21.24C79.2411 21.112 79.5291 20.9306 79.7798 20.696C80.0304 20.456 80.2278 20.1653 80.3718 19.824C80.5158 19.4826 80.5878 19.0986 80.5878 18.672V11.48H82.5398V18.72C82.5398 19.632 82.3424 20.4266 81.9478 21.104C81.5584 21.7813 81.0144 22.3066 80.3158 22.68C79.6224 23.0533 78.8171 23.24 77.8998 23.24Z" fill="white"/>
<path d="M67.5528 23.24C66.7101 23.24 66.0034 23.04 65.4328 22.64C64.8621 22.24 64.4328 21.696 64.1448 21.008C63.8568 20.3146 63.7128 19.5386 63.7128 18.68C63.7128 17.8106 63.8568 17.032 64.1448 16.344C64.4328 15.656 64.8541 15.1146 65.4088 14.72C65.9688 14.32 66.6594 14.12 67.4808 14.12C68.2968 14.12 69.0034 14.32 69.6008 14.72C70.2034 15.1146 70.6701 15.656 71.0008 16.344C71.3314 17.0266 71.4968 17.8053 71.4968 18.68C71.4968 19.544 71.3341 20.32 71.0088 21.008C70.6834 21.696 70.2248 22.24 69.6328 22.64C69.0408 23.04 68.3474 23.24 67.5528 23.24ZM63.3848 23V11.48H65.3288V16.936H65.0888V23H63.3848ZM67.2568 21.512C67.7581 21.512 68.1714 21.3866 68.4968 21.136C68.8221 20.8853 69.0621 20.5466 69.2168 20.12C69.3768 19.688 69.4568 19.208 69.4568 18.68C69.4568 18.1573 69.3768 17.6826 69.2168 17.256C69.0568 16.824 68.8088 16.4826 68.4728 16.232C68.1368 15.976 67.7101 15.848 67.1928 15.848C66.7021 15.848 66.3021 15.968 65.9928 16.208C65.6834 16.4426 65.4541 16.7733 65.3048 17.2C65.1608 17.6213 65.0888 18.1146 65.0888 18.68C65.0888 19.24 65.1608 19.7333 65.3048 20.16C65.4541 20.5866 65.6861 20.92 66.0008 21.16C66.3208 21.3946 66.7394 21.512 67.2568 21.512Z" fill="white"/>
<path d="M57.7029 23.2401C56.8283 23.2401 56.0603 23.0508 55.3989 22.6721C54.7376 22.2935 54.2203 21.7681 53.8469 21.0961C53.4789 20.4241 53.2949 19.6508 53.2949 18.7761C53.2949 17.8321 53.4763 17.0135 53.8389 16.3201C54.2016 15.6215 54.7056 15.0801 55.3509 14.6961C55.9963 14.3121 56.7429 14.1201 57.5909 14.1201C58.4869 14.1201 59.2469 14.3308 59.8709 14.7521C60.5003 15.1681 60.9669 15.7575 61.2709 16.5201C61.5749 17.2828 61.6896 18.1814 61.6149 19.2161H59.7029V18.5121C59.6976 17.5734 59.5323 16.8881 59.2069 16.4561C58.8816 16.0241 58.3696 15.8081 57.6709 15.8081C56.8816 15.8081 56.2949 16.0535 55.9109 16.5441C55.5269 17.0295 55.3349 17.7415 55.3349 18.6801C55.3349 19.5548 55.5269 20.2321 55.9109 20.7121C56.2949 21.1921 56.8549 21.4321 57.5909 21.4321C58.0656 21.4321 58.4736 21.3281 58.8149 21.1201C59.1616 20.9068 59.4283 20.6001 59.6149 20.2001L61.5189 20.7761C61.1883 21.5548 60.6763 22.1601 59.9829 22.5921C59.2949 23.0241 58.5349 23.2401 57.7029 23.2401ZM54.7269 19.2161V17.7601H60.6709V19.2161H54.7269Z" fill="white"/>
<path d="M41.5516 23L38.1836 11.48H40.2076L42.5036 19.8L44.7916 11.496L46.8156 11.48L49.1116 19.8L51.3996 11.48H53.4236L50.0636 23H48.1596L45.7996 14.808L43.4556 23H41.5516Z" fill="white"/>
<path d="M0 8.74999V26.25L15 35V17.5L0 8.74999Z" fill="white"/>
<path d="M15 0L7.49036 4.375L22.5096 13.125V30.625L30 26.25V8.75L15 0Z" fill="white"/>
</svg>
