<svg width="24" height="24" viewBox="0 0 24 24" fill="none" xmlns="http://www.w3.org/2000/svg">
<path d="M19.2497 8.47124C19.01 8.38937 18.7686 8.31312 18.5255 8.24249C18.5658 8.07843 18.603 7.91343 18.637 7.74749C19.1855 5.08031 18.8269 2.93156 17.603 2.22421C16.4311 1.54546 14.5092 2.25281 12.5705 3.94406C12.3798 4.11093 12.1931 4.28281 12.0103 4.45968C11.8884 4.34218 11.7634 4.22718 11.6353 4.11468C9.60328 2.30624 7.56656 1.54452 6.34406 2.25421C5.17219 2.93437 4.82391 4.95421 5.3175 7.48218C5.36688 7.73218 5.42234 7.98109 5.48391 8.2289C5.19563 8.31093 4.91719 8.39859 4.65094 8.4914C2.27156 9.32343 0.75 10.628 0.75 11.9808C0.75 13.3786 2.38312 14.7802 4.86422 15.63C5.06547 15.6984 5.26859 15.762 5.47359 15.8208C5.40703 16.0861 5.34813 16.3544 5.29688 16.6256C4.82813 19.11 5.19375 21.082 6.36328 21.758C7.57125 22.4559 9.59766 21.7387 11.573 20.0091C11.7292 19.8722 11.8855 19.7276 12.0417 19.5755C12.2392 19.7664 12.4423 19.9517 12.6511 20.1314C14.5636 21.7805 16.4522 22.4466 17.6198 21.7687C18.8269 21.0684 19.2192 18.9497 18.7097 16.372C18.6706 16.1751 18.6256 15.9742 18.5747 15.7692C18.7172 15.727 18.8567 15.6834 18.9933 15.6384C21.5714 14.782 23.2509 13.3973 23.2509 11.9822C23.25 10.6228 21.6797 9.30984 19.2497 8.47124ZM13.2028 4.67062C14.8636 3.22171 16.4161 2.64984 17.1239 3.05859C17.8772 3.49406 18.1702 5.24999 17.6967 7.55296C17.6655 7.70296 17.6317 7.85249 17.5955 8.00156C16.6044 7.77612 15.5993 7.61702 14.587 7.52531C14.0074 6.6904 13.3721 5.89562 12.6853 5.1464C12.8534 4.98327 13.0256 4.82468 13.2019 4.67062H13.2028ZM7.39359 13.1367C7.59703 13.5305 7.80969 13.9194 8.03156 14.3034C8.2575 14.6953 8.49297 15.0814 8.73797 15.4617C8.04144 15.386 7.34927 15.2744 6.66422 15.1275C6.86297 14.4844 7.10766 13.8164 7.39359 13.1367ZM7.39359 10.8712C7.11234 10.2061 6.87422 9.55171 6.67875 8.91984C7.32094 8.77593 8.00531 8.65827 8.71875 8.56921C8.47969 8.94234 8.24969 9.32093 8.02875 9.70499C7.80781 10.0891 7.59563 10.4778 7.39219 10.8712H7.39359ZM7.90453 12.0042C8.20078 11.3864 8.51984 10.7805 8.86172 10.1864C9.20328 9.59265 9.56688 9.01249 9.9525 8.44593C10.6219 8.39531 11.3081 8.36859 12.0014 8.36859C12.6947 8.36859 13.3852 8.39531 14.0541 8.4464C14.4356 9.01171 14.797 9.58984 15.1383 10.1808C15.4795 10.7717 15.8028 11.3748 16.1081 11.9901C15.8069 12.6101 15.4844 13.2186 15.1406 13.8155C14.7997 14.4092 14.4403 14.9911 14.0625 15.5611C13.3945 15.608 12.7031 15.6337 12 15.6337C11.2969 15.6337 10.6186 15.6117 9.96281 15.5691C9.57438 15.0006 9.20781 14.418 8.86313 13.8211C8.51844 13.2242 8.19844 12.6186 7.90313 12.0042H7.90453ZM15.9727 14.2969C16.1992 13.9037 16.4167 13.5055 16.6252 13.102C16.9109 13.7499 17.1631 14.412 17.3808 15.0858C16.6877 15.2418 15.9869 15.3615 15.2813 15.4444C15.5194 15.0666 15.7498 14.6841 15.9727 14.2969ZM16.6158 10.8717C16.4083 10.4764 16.1925 10.0858 15.9684 9.69984C15.7497 9.31921 15.5217 8.94327 15.2845 8.57202C16.0022 8.66296 16.6908 8.7839 17.3363 8.93156C17.1287 9.58993 16.8883 10.2375 16.6158 10.8717ZM12.0108 5.83499C12.4789 6.34645 12.9208 6.88119 13.335 7.43718C12.4491 7.39499 11.5625 7.39499 10.6753 7.43718C11.1127 6.85874 11.5603 6.32202 12.0108 5.83499ZM6.82781 3.08718C7.58063 2.65031 9.24516 3.27468 10.9997 4.83421C11.1117 4.93406 11.2247 5.03859 11.3372 5.14687C10.6469 5.89599 10.007 6.69007 9.42188 7.5239C8.41184 7.6149 7.40878 7.77148 6.41906 7.99265C6.36188 7.76265 6.31031 7.53109 6.26438 7.29796C5.84016 5.13093 6.12094 3.49734 6.82781 3.08718ZM5.73047 14.8927C5.54297 14.8392 5.35781 14.7812 5.175 14.7187C4.07813 14.3437 3.17203 13.8544 2.55 13.3214C1.99313 12.8437 1.71094 12.367 1.71094 11.9808C1.71094 11.16 2.9325 10.1128 4.96969 9.40265C5.22563 9.31359 5.48375 9.23218 5.74406 9.15843C6.04662 10.1308 6.41304 11.082 6.84094 12.0061C6.40794 12.9429 6.03698 13.9072 5.73047 14.8927ZM10.9397 19.2834C10.0664 20.0484 9.19172 20.5908 8.42063 20.8641C7.72781 21.1092 7.17609 21.1162 6.84281 20.9236C6.13313 20.5134 5.83781 18.9295 6.24047 16.8052C6.28828 16.5552 6.34297 16.3052 6.40453 16.0552C7.40416 16.2705 8.41728 16.4175 9.43688 16.4953C10.0278 17.3335 10.6729 18.1321 11.3681 18.8859C11.2284 19.0233 11.0855 19.1555 10.9397 19.2834ZM12.0375 18.195C11.5819 17.7023 11.1272 17.1572 10.6838 16.5712C11.1147 16.5881 11.5534 16.5966 12 16.5966C12.4584 16.5966 12.9122 16.5867 13.3594 16.5666C12.9467 17.1315 12.5055 17.675 12.0375 18.195ZM17.8744 19.5352C17.7403 20.2589 17.4708 20.7417 17.1375 20.9348C16.4283 21.3464 14.9119 20.8116 13.2769 19.4011C13.0894 19.2398 12.9019 19.0669 12.7111 18.8855C13.3928 18.1287 14.0228 17.3268 14.5969 16.4855C15.6221 16.3986 16.6402 16.2412 17.6438 16.0144C17.6897 16.2 17.7303 16.3819 17.7656 16.56C17.9911 17.6991 18.0234 18.7294 17.8744 19.5352ZM18.69 14.7239C18.5672 14.7647 18.4406 14.8041 18.3122 14.8425C17.9975 13.8656 17.6168 12.9112 17.1727 11.9859C17.6001 11.073 17.9659 10.1325 18.2677 9.17062C18.4978 9.23765 18.7214 9.30796 18.9366 9.38249C21.0188 10.1006 22.2891 11.1637 22.2891 11.9808C22.2891 12.8526 20.917 13.9842 18.69 14.7239Z" fill="#1FD9FF"/>
<path d="M12 13.9946C12.399 13.9959 12.7893 13.8787 13.1216 13.6581C13.454 13.4374 13.7133 13.123 13.8669 12.7548C14.0205 12.3866 14.0613 11.9812 13.9843 11.5897C13.9073 11.1983 13.7158 10.8386 13.4342 10.556C13.1526 10.2735 12.7934 10.0808 12.4022 10.0025C12.0111 9.92422 11.6055 9.96376 11.2368 10.1161C10.8681 10.2685 10.5529 10.5268 10.3311 10.8584C10.1094 11.19 9.99097 11.58 9.99097 11.9789C9.99042 12.2432 10.042 12.505 10.1426 12.7494C10.2433 12.9938 10.3912 13.2159 10.5778 13.4031C10.7644 13.5903 10.986 13.7389 11.23 13.8404C11.4741 13.9419 11.7357 13.9943 12 13.9946Z" fill="#1FD9FF"/>
</svg>
