<svg width="377" height="330" viewBox="0 0 377 330" fill="none" xmlns="http://www.w3.org/2000/svg">
<path fill-rule="evenodd" clip-rule="evenodd" d="M-7.90582 -1.72182e-05L386 1.72522e-05L386 1.09636L-7.90582 1.09633L-7.90582 -1.72182e-05Z" fill="url(#paint0_linear_1_1795)"/>
<path fill-rule="evenodd" clip-rule="evenodd" d="M-7.90582 32.8903L386 32.8904L386 33.9867L-7.90582 33.9867L-7.90582 32.8903Z" fill="url(#paint1_linear_1_1795)"/>
<path fill-rule="evenodd" clip-rule="evenodd" d="M-7.90583 65.7807L386 65.7807L386 66.8771L-7.90583 66.8771L-7.90583 65.7807Z" fill="url(#paint2_linear_1_1795)"/>
<path fill-rule="evenodd" clip-rule="evenodd" d="M-7.90583 98.6711L386 98.6711L386 99.7675L-7.90583 99.7674L-7.90583 98.6711Z" fill="url(#paint3_linear_1_1795)"/>
<path fill-rule="evenodd" clip-rule="evenodd" d="M-7.90583 131.561L386 131.561L386 132.658L-7.90583 132.658L-7.90583 131.561Z" fill="url(#paint4_linear_1_1795)"/>
<path fill-rule="evenodd" clip-rule="evenodd" d="M-7.90583 164.452L386 164.452L386 165.548L-7.90583 165.548L-7.90583 164.452Z" fill="url(#paint5_linear_1_1795)"/>
<path fill-rule="evenodd" clip-rule="evenodd" d="M-7.90583 197.342L386 197.342L386 198.439L-7.90583 198.439L-7.90583 197.342Z" fill="url(#paint6_linear_1_1795)"/>
<path fill-rule="evenodd" clip-rule="evenodd" d="M-7.90583 230.233L386 230.233L386 231.329L-7.90583 231.329L-7.90583 230.233Z" fill="url(#paint7_linear_1_1795)"/>
<path fill-rule="evenodd" clip-rule="evenodd" d="M-7.90583 263.123L386 263.123L386 264.219L-7.90583 264.219L-7.90583 263.123Z" fill="url(#paint8_linear_1_1795)"/>
<path fill-rule="evenodd" clip-rule="evenodd" d="M-7.90584 296.013L386 296.013L386 297.11L-7.90584 297.11L-7.90584 296.013Z" fill="url(#paint9_linear_1_1795)"/>
<path fill-rule="evenodd" clip-rule="evenodd" d="M-7.90584 328.904L386 328.904L386 330L-7.90584 330L-7.90584 328.904Z" fill="url(#paint10_linear_1_1795)"/>
<path fill-rule="evenodd" clip-rule="evenodd" d="M386 1.72522e-05L386 328.904L384.906 328.904L384.906 1.72044e-05L386 1.72522e-05Z" fill="url(#paint11_linear_1_1795)"/>
<path fill-rule="evenodd" clip-rule="evenodd" d="M353.175 1.58174e-05L353.175 328.904L352.08 328.904L352.08 1.57695e-05L353.175 1.58174e-05Z" fill="url(#paint12_linear_1_1795)"/>
<path fill-rule="evenodd" clip-rule="evenodd" d="M320.349 1.43825e-05L320.349 328.904L319.255 328.904L319.255 1.43347e-05L320.349 1.43825e-05Z" fill="url(#paint13_linear_1_1795)"/>
<path fill-rule="evenodd" clip-rule="evenodd" d="M287.524 1.29477e-05L287.524 328.904L286.429 328.904L286.429 1.28998e-05L287.524 1.29477e-05Z" fill="url(#paint14_linear_1_1795)"/>
<path fill-rule="evenodd" clip-rule="evenodd" d="M254.698 1.15128e-05L254.698 328.904L253.604 328.904L253.604 1.1465e-05L254.698 1.15128e-05Z" fill="url(#paint15_linear_1_1795)"/>
<path fill-rule="evenodd" clip-rule="evenodd" d="M221.873 1.0078e-05L221.873 328.904L220.778 328.904L220.778 1.00301e-05L221.873 1.0078e-05Z" fill="url(#paint16_linear_1_1795)"/>
<path fill-rule="evenodd" clip-rule="evenodd" d="M189.047 8.64313e-06L189.047 328.904L187.953 328.904L187.953 8.5953e-06L189.047 8.64313e-06Z" fill="url(#paint17_linear_1_1795)"/>
<path fill-rule="evenodd" clip-rule="evenodd" d="M156.222 7.20828e-06L156.222 328.904L155.127 328.904L155.127 7.16045e-06L156.222 7.20828e-06Z" fill="url(#paint18_linear_1_1795)"/>
<path fill-rule="evenodd" clip-rule="evenodd" d="M123.396 5.77343e-06L123.396 328.904L122.302 328.904L122.302 5.7256e-06L123.396 5.77343e-06Z" fill="url(#paint19_linear_1_1795)"/>
<path fill-rule="evenodd" clip-rule="evenodd" d="M90.5706 4.33858e-06L90.5706 328.904L89.4764 328.904L89.4764 4.29075e-06L90.5706 4.33858e-06Z" fill="url(#paint20_linear_1_1795)"/>
<path fill-rule="evenodd" clip-rule="evenodd" d="M57.7451 2.90374e-06L57.7451 328.904L56.651 328.904L56.651 2.85591e-06L57.7451 2.90374e-06Z" fill="url(#paint21_linear_1_1795)"/>
<path fill-rule="evenodd" clip-rule="evenodd" d="M24.9196 1.46889e-06L24.9196 328.904L23.8255 328.904L23.8255 1.42106e-06L24.9196 1.46889e-06Z" fill="url(#paint22_linear_1_1795)"/>
<path fill-rule="evenodd" clip-rule="evenodd" d="M-7.90582 -1.72182e-05L-7.90584 328.904L-9.00001 328.904L-9 -1.37879e-08L-7.90582 -1.72182e-05Z" fill="url(#paint23_linear_1_1795)"/>
<defs>
<linearGradient id="paint0_linear_1_1795" x1="44.2766" y1="23.1108" x2="332.339" y2="323.919" gradientUnits="userSpaceOnUse">
<stop offset="0.32" stop-color="#2A2A2A" stop-opacity="0.21"/>
<stop offset="1" stop-color="#232323"/>
</linearGradient>
<linearGradient id="paint1_linear_1_1795" x1="44.2766" y1="23.1108" x2="332.339" y2="323.919" gradientUnits="userSpaceOnUse">
<stop offset="0.32" stop-color="#2A2A2A" stop-opacity="0.21"/>
<stop offset="1" stop-color="#232323"/>
</linearGradient>
<linearGradient id="paint2_linear_1_1795" x1="44.2766" y1="23.1108" x2="332.339" y2="323.919" gradientUnits="userSpaceOnUse">
<stop offset="0.32" stop-color="#2A2A2A" stop-opacity="0.21"/>
<stop offset="1" stop-color="#232323"/>
</linearGradient>
<linearGradient id="paint3_linear_1_1795" x1="44.2766" y1="23.1108" x2="332.339" y2="323.919" gradientUnits="userSpaceOnUse">
<stop offset="0.32" stop-color="#2A2A2A" stop-opacity="0.21"/>
<stop offset="1" stop-color="#232323"/>
</linearGradient>
<linearGradient id="paint4_linear_1_1795" x1="44.2766" y1="23.1108" x2="332.339" y2="323.919" gradientUnits="userSpaceOnUse">
<stop offset="0.32" stop-color="#2A2A2A" stop-opacity="0.21"/>
<stop offset="1" stop-color="#232323"/>
</linearGradient>
<linearGradient id="paint5_linear_1_1795" x1="44.2766" y1="23.1108" x2="332.339" y2="323.919" gradientUnits="userSpaceOnUse">
<stop offset="0.32" stop-color="#2A2A2A" stop-opacity="0.21"/>
<stop offset="1" stop-color="#232323"/>
</linearGradient>
<linearGradient id="paint6_linear_1_1795" x1="44.2766" y1="23.1108" x2="332.339" y2="323.919" gradientUnits="userSpaceOnUse">
<stop offset="0.32" stop-color="#2A2A2A" stop-opacity="0.21"/>
<stop offset="1" stop-color="#232323"/>
</linearGradient>
<linearGradient id="paint7_linear_1_1795" x1="44.2766" y1="23.1108" x2="332.339" y2="323.919" gradientUnits="userSpaceOnUse">
<stop offset="0.32" stop-color="#2A2A2A" stop-opacity="0.21"/>
<stop offset="1" stop-color="#232323"/>
</linearGradient>
<linearGradient id="paint8_linear_1_1795" x1="44.2766" y1="23.1108" x2="332.339" y2="323.919" gradientUnits="userSpaceOnUse">
<stop offset="0.32" stop-color="#2A2A2A" stop-opacity="0.21"/>
<stop offset="1" stop-color="#232323"/>
</linearGradient>
<linearGradient id="paint9_linear_1_1795" x1="44.2766" y1="23.1108" x2="332.339" y2="323.919" gradientUnits="userSpaceOnUse">
<stop offset="0.32" stop-color="#2A2A2A" stop-opacity="0.21"/>
<stop offset="1" stop-color="#232323"/>
</linearGradient>
<linearGradient id="paint10_linear_1_1795" x1="44.2766" y1="23.1108" x2="332.339" y2="323.919" gradientUnits="userSpaceOnUse">
<stop offset="0.32" stop-color="#2A2A2A" stop-opacity="0.21"/>
<stop offset="1" stop-color="#232323"/>
</linearGradient>
<linearGradient id="paint11_linear_1_1795" x1="44.2766" y1="23.1108" x2="332.339" y2="323.919" gradientUnits="userSpaceOnUse">
<stop offset="0.32" stop-color="#2A2A2A" stop-opacity="0.21"/>
<stop offset="1" stop-color="#232323"/>
</linearGradient>
<linearGradient id="paint12_linear_1_1795" x1="44.2766" y1="23.1108" x2="332.339" y2="323.919" gradientUnits="userSpaceOnUse">
<stop offset="0.32" stop-color="#2A2A2A" stop-opacity="0.21"/>
<stop offset="1" stop-color="#232323"/>
</linearGradient>
<linearGradient id="paint13_linear_1_1795" x1="44.2766" y1="23.1108" x2="332.339" y2="323.919" gradientUnits="userSpaceOnUse">
<stop offset="0.32" stop-color="#2A2A2A" stop-opacity="0.21"/>
<stop offset="1" stop-color="#232323"/>
</linearGradient>
<linearGradient id="paint14_linear_1_1795" x1="44.2766" y1="23.1108" x2="332.339" y2="323.919" gradientUnits="userSpaceOnUse">
<stop offset="0.32" stop-color="#2A2A2A" stop-opacity="0.21"/>
<stop offset="1" stop-color="#232323"/>
</linearGradient>
<linearGradient id="paint15_linear_1_1795" x1="44.2766" y1="23.1108" x2="332.339" y2="323.919" gradientUnits="userSpaceOnUse">
<stop offset="0.32" stop-color="#2A2A2A" stop-opacity="0.21"/>
<stop offset="1" stop-color="#232323"/>
</linearGradient>
<linearGradient id="paint16_linear_1_1795" x1="44.2766" y1="23.1108" x2="332.339" y2="323.919" gradientUnits="userSpaceOnUse">
<stop offset="0.32" stop-color="#2A2A2A" stop-opacity="0.21"/>
<stop offset="1" stop-color="#232323"/>
</linearGradient>
<linearGradient id="paint17_linear_1_1795" x1="44.2766" y1="23.1108" x2="332.339" y2="323.919" gradientUnits="userSpaceOnUse">
<stop offset="0.32" stop-color="#2A2A2A" stop-opacity="0.21"/>
<stop offset="1" stop-color="#232323"/>
</linearGradient>
<linearGradient id="paint18_linear_1_1795" x1="44.2766" y1="23.1108" x2="332.339" y2="323.919" gradientUnits="userSpaceOnUse">
<stop offset="0.32" stop-color="#2A2A2A" stop-opacity="0.21"/>
<stop offset="1" stop-color="#232323"/>
</linearGradient>
<linearGradient id="paint19_linear_1_1795" x1="44.2766" y1="23.1108" x2="332.339" y2="323.919" gradientUnits="userSpaceOnUse">
<stop offset="0.32" stop-color="#2A2A2A" stop-opacity="0.21"/>
<stop offset="1" stop-color="#232323"/>
</linearGradient>
<linearGradient id="paint20_linear_1_1795" x1="44.2766" y1="23.1108" x2="332.339" y2="323.919" gradientUnits="userSpaceOnUse">
<stop offset="0.32" stop-color="#2A2A2A" stop-opacity="0.21"/>
<stop offset="1" stop-color="#232323"/>
</linearGradient>
<linearGradient id="paint21_linear_1_1795" x1="44.2766" y1="23.1108" x2="332.339" y2="323.919" gradientUnits="userSpaceOnUse">
<stop offset="0.32" stop-color="#2A2A2A" stop-opacity="0.21"/>
<stop offset="1" stop-color="#232323"/>
</linearGradient>
<linearGradient id="paint22_linear_1_1795" x1="44.2766" y1="23.1108" x2="332.339" y2="323.919" gradientUnits="userSpaceOnUse">
<stop offset="0.32" stop-color="#2A2A2A" stop-opacity="0.21"/>
<stop offset="1" stop-color="#232323"/>
</linearGradient>
<linearGradient id="paint23_linear_1_1795" x1="44.2766" y1="23.1108" x2="332.339" y2="323.919" gradientUnits="userSpaceOnUse">
<stop offset="0.32" stop-color="#2A2A2A" stop-opacity="0.21"/>
<stop offset="1" stop-color="#232323"/>
</linearGradient>
</defs>
</svg>
