<svg width="367" height="291" viewBox="0 0 367 291" fill="none" xmlns="http://www.w3.org/2000/svg">
<path fill-rule="evenodd" clip-rule="evenodd" d="M1.0166 -8.00002L367 -7.99998L367 -6.98005L1.0166 -6.98008L1.0166 -8.00002Z" fill="url(#paint0_linear_1_2218)"/>
<path fill-rule="evenodd" clip-rule="evenodd" d="M1.0166 22.598L367 22.598L367 23.618L1.0166 23.6179L1.0166 22.598Z" fill="url(#paint1_linear_1_2218)"/>
<path fill-rule="evenodd" clip-rule="evenodd" d="M1.0166 53.196L367 53.196L367 54.216L1.0166 54.2159L1.0166 53.196Z" fill="url(#paint2_linear_1_2218)"/>
<path fill-rule="evenodd" clip-rule="evenodd" d="M1.0166 83.794L367 83.794L367 84.814L1.0166 84.8139L1.0166 83.794Z" fill="url(#paint3_linear_1_2218)"/>
<path fill-rule="evenodd" clip-rule="evenodd" d="M1.0166 114.392L367 114.392L367 115.412L1.0166 115.412L1.0166 114.392Z" fill="url(#paint4_linear_1_2218)"/>
<path fill-rule="evenodd" clip-rule="evenodd" d="M1.01659 144.99L367 144.99L367 146.01L1.01659 146.01L1.01659 144.99Z" fill="url(#paint5_linear_1_2218)"/>
<path fill-rule="evenodd" clip-rule="evenodd" d="M1.01659 175.588L367 175.588L367 176.608L1.01659 176.608L1.01659 175.588Z" fill="url(#paint6_linear_1_2218)"/>
<path fill-rule="evenodd" clip-rule="evenodd" d="M1.01659 206.186L367 206.186L367 207.206L1.01659 207.206L1.01659 206.186Z" fill="url(#paint7_linear_1_2218)"/>
<path fill-rule="evenodd" clip-rule="evenodd" d="M1.01659 236.784L367 236.784L367 237.804L1.01659 237.804L1.01659 236.784Z" fill="url(#paint8_linear_1_2218)"/>
<path fill-rule="evenodd" clip-rule="evenodd" d="M1.01659 267.382L367 267.382L367 268.402L1.01659 268.402L1.01659 267.382Z" fill="url(#paint9_linear_1_2218)"/>
<path fill-rule="evenodd" clip-rule="evenodd" d="M1.01659 297.98L367 297.98L367 299L1.01659 299L1.01659 297.98Z" fill="url(#paint10_linear_1_2218)"/>
<path fill-rule="evenodd" clip-rule="evenodd" d="M367 -7.99998L367 297.98L365.983 297.98L365.983 -7.99998L367 -7.99998Z" fill="url(#paint11_linear_1_2218)"/>
<path fill-rule="evenodd" clip-rule="evenodd" d="M336.501 -7.99999L336.501 297.98L335.485 297.98L335.485 -7.99999L336.501 -7.99999Z" fill="url(#paint12_linear_1_2218)"/>
<path fill-rule="evenodd" clip-rule="evenodd" d="M306.003 -7.99999L306.003 297.98L304.986 297.98L304.986 -7.99999L306.003 -7.99999Z" fill="url(#paint13_linear_1_2218)"/>
<path fill-rule="evenodd" clip-rule="evenodd" d="M275.504 -7.99999L275.504 297.98L274.488 297.98L274.488 -7.99999L275.504 -7.99999Z" fill="url(#paint14_linear_1_2218)"/>
<path fill-rule="evenodd" clip-rule="evenodd" d="M245.006 -7.99999L245.006 297.98L243.989 297.98L243.989 -7.99999L245.006 -7.99999Z" fill="url(#paint15_linear_1_2218)"/>
<path fill-rule="evenodd" clip-rule="evenodd" d="M214.507 -7.99999L214.507 297.98L213.49 297.98L213.49 -7.99999L214.507 -7.99999Z" fill="url(#paint16_linear_1_2218)"/>
<path fill-rule="evenodd" clip-rule="evenodd" d="M184.008 -7.99999L184.008 297.98L182.992 297.98L182.992 -7.99999L184.008 -7.99999Z" fill="url(#paint17_linear_1_2218)"/>
<path fill-rule="evenodd" clip-rule="evenodd" d="M153.51 -7.99999L153.51 297.98L152.493 297.98L152.493 -7.99999L153.51 -7.99999Z" fill="url(#paint18_linear_1_2218)"/>
<path fill-rule="evenodd" clip-rule="evenodd" d="M123.011 -7.99999L123.011 297.98L121.994 297.98L121.994 -7.99999L123.011 -7.99999Z" fill="url(#paint19_linear_1_2218)"/>
<path fill-rule="evenodd" clip-rule="evenodd" d="M92.5125 -8L92.5124 297.98L91.4958 297.98L91.4958 -8L92.5125 -8Z" fill="url(#paint20_linear_1_2218)"/>
<path fill-rule="evenodd" clip-rule="evenodd" d="M62.0139 -8L62.0138 297.98L60.9972 297.98L60.9972 -8L62.0139 -8Z" fill="url(#paint21_linear_1_2218)"/>
<path fill-rule="evenodd" clip-rule="evenodd" d="M31.5152 -8L31.5152 297.98L30.4986 297.98L30.4986 -8L31.5152 -8Z" fill="url(#paint22_linear_1_2218)"/>
<path fill-rule="evenodd" clip-rule="evenodd" d="M1.0166 -8.00002L1.01659 297.98L-1.33748e-05 297.98L0 -8L1.0166 -8.00002Z" fill="url(#paint23_linear_1_2218)"/>
<defs>
<linearGradient id="paint0_linear_1_2218" x1="49.5" y1="13.5" x2="317.5" y2="293" gradientUnits="userSpaceOnUse">
<stop offset="0.32" stop-color="#2A2A2A" stop-opacity="0.21"/>
<stop offset="1" stop-color="#232323"/>
</linearGradient>
<linearGradient id="paint1_linear_1_2218" x1="49.5" y1="13.5" x2="317.5" y2="293" gradientUnits="userSpaceOnUse">
<stop offset="0.32" stop-color="#2A2A2A" stop-opacity="0.21"/>
<stop offset="1" stop-color="#232323"/>
</linearGradient>
<linearGradient id="paint2_linear_1_2218" x1="49.5" y1="13.5" x2="317.5" y2="293" gradientUnits="userSpaceOnUse">
<stop offset="0.32" stop-color="#2A2A2A" stop-opacity="0.21"/>
<stop offset="1" stop-color="#232323"/>
</linearGradient>
<linearGradient id="paint3_linear_1_2218" x1="49.5" y1="13.5" x2="317.5" y2="293" gradientUnits="userSpaceOnUse">
<stop offset="0.32" stop-color="#2A2A2A" stop-opacity="0.21"/>
<stop offset="1" stop-color="#232323"/>
</linearGradient>
<linearGradient id="paint4_linear_1_2218" x1="49.5" y1="13.5" x2="317.5" y2="293" gradientUnits="userSpaceOnUse">
<stop offset="0.32" stop-color="#2A2A2A" stop-opacity="0.21"/>
<stop offset="1" stop-color="#232323"/>
</linearGradient>
<linearGradient id="paint5_linear_1_2218" x1="49.5" y1="13.5" x2="317.5" y2="293" gradientUnits="userSpaceOnUse">
<stop offset="0.32" stop-color="#2A2A2A" stop-opacity="0.21"/>
<stop offset="1" stop-color="#232323"/>
</linearGradient>
<linearGradient id="paint6_linear_1_2218" x1="49.5" y1="13.5" x2="317.5" y2="293" gradientUnits="userSpaceOnUse">
<stop offset="0.32" stop-color="#2A2A2A" stop-opacity="0.21"/>
<stop offset="1" stop-color="#232323"/>
</linearGradient>
<linearGradient id="paint7_linear_1_2218" x1="49.5" y1="13.5" x2="317.5" y2="293" gradientUnits="userSpaceOnUse">
<stop offset="0.32" stop-color="#2A2A2A" stop-opacity="0.21"/>
<stop offset="1" stop-color="#232323"/>
</linearGradient>
<linearGradient id="paint8_linear_1_2218" x1="49.5" y1="13.5" x2="317.5" y2="293" gradientUnits="userSpaceOnUse">
<stop offset="0.32" stop-color="#2A2A2A" stop-opacity="0.21"/>
<stop offset="1" stop-color="#232323"/>
</linearGradient>
<linearGradient id="paint9_linear_1_2218" x1="49.5" y1="13.5" x2="317.5" y2="293" gradientUnits="userSpaceOnUse">
<stop offset="0.32" stop-color="#2A2A2A" stop-opacity="0.21"/>
<stop offset="1" stop-color="#232323"/>
</linearGradient>
<linearGradient id="paint10_linear_1_2218" x1="49.5" y1="13.5" x2="317.5" y2="293" gradientUnits="userSpaceOnUse">
<stop offset="0.32" stop-color="#2A2A2A" stop-opacity="0.21"/>
<stop offset="1" stop-color="#232323"/>
</linearGradient>
<linearGradient id="paint11_linear_1_2218" x1="49.5" y1="13.5" x2="317.5" y2="293" gradientUnits="userSpaceOnUse">
<stop offset="0.32" stop-color="#2A2A2A" stop-opacity="0.21"/>
<stop offset="1" stop-color="#232323"/>
</linearGradient>
<linearGradient id="paint12_linear_1_2218" x1="49.5" y1="13.5" x2="317.5" y2="293" gradientUnits="userSpaceOnUse">
<stop offset="0.32" stop-color="#2A2A2A" stop-opacity="0.21"/>
<stop offset="1" stop-color="#232323"/>
</linearGradient>
<linearGradient id="paint13_linear_1_2218" x1="49.5" y1="13.5" x2="317.5" y2="293" gradientUnits="userSpaceOnUse">
<stop offset="0.32" stop-color="#2A2A2A" stop-opacity="0.21"/>
<stop offset="1" stop-color="#232323"/>
</linearGradient>
<linearGradient id="paint14_linear_1_2218" x1="49.5" y1="13.5" x2="317.5" y2="293" gradientUnits="userSpaceOnUse">
<stop offset="0.32" stop-color="#2A2A2A" stop-opacity="0.21"/>
<stop offset="1" stop-color="#232323"/>
</linearGradient>
<linearGradient id="paint15_linear_1_2218" x1="49.5" y1="13.5" x2="317.5" y2="293" gradientUnits="userSpaceOnUse">
<stop offset="0.32" stop-color="#2A2A2A" stop-opacity="0.21"/>
<stop offset="1" stop-color="#232323"/>
</linearGradient>
<linearGradient id="paint16_linear_1_2218" x1="49.5" y1="13.5" x2="317.5" y2="293" gradientUnits="userSpaceOnUse">
<stop offset="0.32" stop-color="#2A2A2A" stop-opacity="0.21"/>
<stop offset="1" stop-color="#232323"/>
</linearGradient>
<linearGradient id="paint17_linear_1_2218" x1="49.5" y1="13.5" x2="317.5" y2="293" gradientUnits="userSpaceOnUse">
<stop offset="0.32" stop-color="#2A2A2A" stop-opacity="0.21"/>
<stop offset="1" stop-color="#232323"/>
</linearGradient>
<linearGradient id="paint18_linear_1_2218" x1="49.5" y1="13.5" x2="317.5" y2="293" gradientUnits="userSpaceOnUse">
<stop offset="0.32" stop-color="#2A2A2A" stop-opacity="0.21"/>
<stop offset="1" stop-color="#232323"/>
</linearGradient>
<linearGradient id="paint19_linear_1_2218" x1="49.5" y1="13.5" x2="317.5" y2="293" gradientUnits="userSpaceOnUse">
<stop offset="0.32" stop-color="#2A2A2A" stop-opacity="0.21"/>
<stop offset="1" stop-color="#232323"/>
</linearGradient>
<linearGradient id="paint20_linear_1_2218" x1="49.5" y1="13.5" x2="317.5" y2="293" gradientUnits="userSpaceOnUse">
<stop offset="0.32" stop-color="#2A2A2A" stop-opacity="0.21"/>
<stop offset="1" stop-color="#232323"/>
</linearGradient>
<linearGradient id="paint21_linear_1_2218" x1="49.5" y1="13.5" x2="317.5" y2="293" gradientUnits="userSpaceOnUse">
<stop offset="0.32" stop-color="#2A2A2A" stop-opacity="0.21"/>
<stop offset="1" stop-color="#232323"/>
</linearGradient>
<linearGradient id="paint22_linear_1_2218" x1="49.5" y1="13.5" x2="317.5" y2="293" gradientUnits="userSpaceOnUse">
<stop offset="0.32" stop-color="#2A2A2A" stop-opacity="0.21"/>
<stop offset="1" stop-color="#232323"/>
</linearGradient>
<linearGradient id="paint23_linear_1_2218" x1="49.5" y1="13.5" x2="317.5" y2="293" gradientUnits="userSpaceOnUse">
<stop offset="0.32" stop-color="#2A2A2A" stop-opacity="0.21"/>
<stop offset="1" stop-color="#232323"/>
</linearGradient>
</defs>
</svg>
