<svg width="377" height="481" viewBox="0 0 377 481" fill="none" xmlns="http://www.w3.org/2000/svg">
<path fill-rule="evenodd" clip-rule="evenodd" d="M-102.38 -8.00003L481 -7.99997L481 -6.37539L-102.38 -6.37544L-102.38 -8.00003Z" fill="url(#paint0_linear_1_2056)"/>
<path fill-rule="evenodd" clip-rule="evenodd" d="M-102.38 40.7375L481 40.7376L481 42.3621L-102.38 42.3621L-102.38 40.7375Z" fill="url(#paint1_linear_1_2056)"/>
<path fill-rule="evenodd" clip-rule="evenodd" d="M-102.38 89.4751L481 89.4751L481 91.0997L-102.38 91.0996L-102.38 89.4751Z" fill="url(#paint2_linear_1_2056)"/>
<path fill-rule="evenodd" clip-rule="evenodd" d="M-102.38 138.213L481 138.213L481 139.837L-102.38 139.837L-102.38 138.213Z" fill="url(#paint3_linear_1_2056)"/>
<path fill-rule="evenodd" clip-rule="evenodd" d="M-102.38 186.95L481 186.95L481 188.575L-102.38 188.575L-102.38 186.95Z" fill="url(#paint4_linear_1_2056)"/>
<path fill-rule="evenodd" clip-rule="evenodd" d="M-102.38 235.688L481 235.688L481 237.312L-102.38 237.312L-102.38 235.688Z" fill="url(#paint5_linear_1_2056)"/>
<path fill-rule="evenodd" clip-rule="evenodd" d="M-102.38 284.425L481 284.425L481 286.05L-102.38 286.05L-102.38 284.425Z" fill="url(#paint6_linear_1_2056)"/>
<path fill-rule="evenodd" clip-rule="evenodd" d="M-102.38 333.163L481 333.163L481 334.787L-102.38 334.787L-102.38 333.163Z" fill="url(#paint7_linear_1_2056)"/>
<path fill-rule="evenodd" clip-rule="evenodd" d="M-102.38 381.9L481 381.9L481 383.525L-102.38 383.525L-102.38 381.9Z" fill="url(#paint8_linear_1_2056)"/>
<path fill-rule="evenodd" clip-rule="evenodd" d="M-102.38 430.638L481 430.638L481 432.262L-102.38 432.262L-102.38 430.638Z" fill="url(#paint9_linear_1_2056)"/>
<path fill-rule="evenodd" clip-rule="evenodd" d="M-102.38 479.375L481 479.375L481 481L-102.38 481L-102.38 479.375Z" fill="url(#paint10_linear_1_2056)"/>
<path fill-rule="evenodd" clip-rule="evenodd" d="M481 -7.99997L481 479.375L479.379 479.375L479.38 -7.99997L481 -7.99997Z" fill="url(#paint11_linear_1_2056)"/>
<path fill-rule="evenodd" clip-rule="evenodd" d="M432.385 -7.99998L432.385 479.375L430.765 479.375L430.765 -7.99998L432.385 -7.99998Z" fill="url(#paint12_linear_1_2056)"/>
<path fill-rule="evenodd" clip-rule="evenodd" d="M383.77 -7.99998L383.77 479.375L382.15 479.375L382.15 -7.99998L383.77 -7.99998Z" fill="url(#paint13_linear_1_2056)"/>
<path fill-rule="evenodd" clip-rule="evenodd" d="M335.155 -7.99998L335.155 479.375L333.535 479.375L333.535 -7.99998L335.155 -7.99998Z" fill="url(#paint14_linear_1_2056)"/>
<path fill-rule="evenodd" clip-rule="evenodd" d="M286.54 -7.99998L286.54 479.375L284.92 479.375L284.92 -7.99998L286.54 -7.99998Z" fill="url(#paint15_linear_1_2056)"/>
<path fill-rule="evenodd" clip-rule="evenodd" d="M237.925 -7.99999L237.925 479.375L236.305 479.375L236.305 -7.99999L237.925 -7.99999Z" fill="url(#paint16_linear_1_2056)"/>
<path fill-rule="evenodd" clip-rule="evenodd" d="M189.31 -7.99999L189.31 479.375L187.69 479.375L187.69 -7.99999L189.31 -7.99999Z" fill="url(#paint17_linear_1_2056)"/>
<path fill-rule="evenodd" clip-rule="evenodd" d="M140.695 -7.99999L140.695 479.375L139.075 479.375L139.075 -7.99999L140.695 -7.99999Z" fill="url(#paint18_linear_1_2056)"/>
<path fill-rule="evenodd" clip-rule="evenodd" d="M92.0803 -7.99999L92.0803 479.375L90.4598 479.375L90.4598 -7.99999L92.0803 -7.99999Z" fill="url(#paint19_linear_1_2056)"/>
<path fill-rule="evenodd" clip-rule="evenodd" d="M43.4654 -7.99999L43.4653 479.375L41.8448 479.375L41.8448 -7.99999L43.4654 -7.99999Z" fill="url(#paint20_linear_1_2056)"/>
<path fill-rule="evenodd" clip-rule="evenodd" d="M-5.1496 -8L-5.14962 479.375L-6.7701 479.375L-6.77008 -8L-5.1496 -8Z" fill="url(#paint21_linear_1_2056)"/>
<path fill-rule="evenodd" clip-rule="evenodd" d="M-53.7645 -8L-53.7645 479.375L-55.3851 479.375L-55.3851 -8L-53.7645 -8Z" fill="url(#paint22_linear_1_2056)"/>
<path fill-rule="evenodd" clip-rule="evenodd" d="M-102.38 -8.00003L-102.38 479.375L-104 479.375L-104 -8L-102.38 -8.00003Z" fill="url(#paint23_linear_1_2056)"/>
<defs>
<linearGradient id="paint0_linear_1_2056" x1="-25.0967" y1="26.2459" x2="401.769" y2="471.757" gradientUnits="userSpaceOnUse">
<stop offset="0.32" stop-color="#2A2A2A" stop-opacity="0.21"/>
<stop offset="1" stop-color="#232323"/>
</linearGradient>
<linearGradient id="paint1_linear_1_2056" x1="-25.0967" y1="26.2459" x2="401.769" y2="471.757" gradientUnits="userSpaceOnUse">
<stop offset="0.32" stop-color="#2A2A2A" stop-opacity="0.21"/>
<stop offset="1" stop-color="#232323"/>
</linearGradient>
<linearGradient id="paint2_linear_1_2056" x1="-25.0967" y1="26.2459" x2="401.769" y2="471.757" gradientUnits="userSpaceOnUse">
<stop offset="0.32" stop-color="#2A2A2A" stop-opacity="0.21"/>
<stop offset="1" stop-color="#232323"/>
</linearGradient>
<linearGradient id="paint3_linear_1_2056" x1="-25.0967" y1="26.2459" x2="401.769" y2="471.757" gradientUnits="userSpaceOnUse">
<stop offset="0.32" stop-color="#2A2A2A" stop-opacity="0.21"/>
<stop offset="1" stop-color="#232323"/>
</linearGradient>
<linearGradient id="paint4_linear_1_2056" x1="-25.0967" y1="26.2459" x2="401.769" y2="471.757" gradientUnits="userSpaceOnUse">
<stop offset="0.32" stop-color="#2A2A2A" stop-opacity="0.21"/>
<stop offset="1" stop-color="#232323"/>
</linearGradient>
<linearGradient id="paint5_linear_1_2056" x1="-25.0967" y1="26.2459" x2="401.769" y2="471.757" gradientUnits="userSpaceOnUse">
<stop offset="0.32" stop-color="#2A2A2A" stop-opacity="0.21"/>
<stop offset="1" stop-color="#232323"/>
</linearGradient>
<linearGradient id="paint6_linear_1_2056" x1="-25.0967" y1="26.2459" x2="401.769" y2="471.757" gradientUnits="userSpaceOnUse">
<stop offset="0.32" stop-color="#2A2A2A" stop-opacity="0.21"/>
<stop offset="1" stop-color="#232323"/>
</linearGradient>
<linearGradient id="paint7_linear_1_2056" x1="-25.0967" y1="26.2459" x2="401.769" y2="471.757" gradientUnits="userSpaceOnUse">
<stop offset="0.32" stop-color="#2A2A2A" stop-opacity="0.21"/>
<stop offset="1" stop-color="#232323"/>
</linearGradient>
<linearGradient id="paint8_linear_1_2056" x1="-25.0967" y1="26.2459" x2="401.769" y2="471.757" gradientUnits="userSpaceOnUse">
<stop offset="0.32" stop-color="#2A2A2A" stop-opacity="0.21"/>
<stop offset="1" stop-color="#232323"/>
</linearGradient>
<linearGradient id="paint9_linear_1_2056" x1="-25.0967" y1="26.2459" x2="401.769" y2="471.757" gradientUnits="userSpaceOnUse">
<stop offset="0.32" stop-color="#2A2A2A" stop-opacity="0.21"/>
<stop offset="1" stop-color="#232323"/>
</linearGradient>
<linearGradient id="paint10_linear_1_2056" x1="-25.0967" y1="26.2459" x2="401.769" y2="471.757" gradientUnits="userSpaceOnUse">
<stop offset="0.32" stop-color="#2A2A2A" stop-opacity="0.21"/>
<stop offset="1" stop-color="#232323"/>
</linearGradient>
<linearGradient id="paint11_linear_1_2056" x1="-25.0967" y1="26.2459" x2="401.769" y2="471.757" gradientUnits="userSpaceOnUse">
<stop offset="0.32" stop-color="#2A2A2A" stop-opacity="0.21"/>
<stop offset="1" stop-color="#232323"/>
</linearGradient>
<linearGradient id="paint12_linear_1_2056" x1="-25.0967" y1="26.2459" x2="401.769" y2="471.757" gradientUnits="userSpaceOnUse">
<stop offset="0.32" stop-color="#2A2A2A" stop-opacity="0.21"/>
<stop offset="1" stop-color="#232323"/>
</linearGradient>
<linearGradient id="paint13_linear_1_2056" x1="-25.0967" y1="26.2459" x2="401.769" y2="471.757" gradientUnits="userSpaceOnUse">
<stop offset="0.32" stop-color="#2A2A2A" stop-opacity="0.21"/>
<stop offset="1" stop-color="#232323"/>
</linearGradient>
<linearGradient id="paint14_linear_1_2056" x1="-25.0967" y1="26.2459" x2="401.769" y2="471.757" gradientUnits="userSpaceOnUse">
<stop offset="0.32" stop-color="#2A2A2A" stop-opacity="0.21"/>
<stop offset="1" stop-color="#232323"/>
</linearGradient>
<linearGradient id="paint15_linear_1_2056" x1="-25.0967" y1="26.2459" x2="401.769" y2="471.757" gradientUnits="userSpaceOnUse">
<stop offset="0.32" stop-color="#2A2A2A" stop-opacity="0.21"/>
<stop offset="1" stop-color="#232323"/>
</linearGradient>
<linearGradient id="paint16_linear_1_2056" x1="-25.0967" y1="26.2459" x2="401.769" y2="471.757" gradientUnits="userSpaceOnUse">
<stop offset="0.32" stop-color="#2A2A2A" stop-opacity="0.21"/>
<stop offset="1" stop-color="#232323"/>
</linearGradient>
<linearGradient id="paint17_linear_1_2056" x1="-25.0967" y1="26.2459" x2="401.769" y2="471.757" gradientUnits="userSpaceOnUse">
<stop offset="0.32" stop-color="#2A2A2A" stop-opacity="0.21"/>
<stop offset="1" stop-color="#232323"/>
</linearGradient>
<linearGradient id="paint18_linear_1_2056" x1="-25.0967" y1="26.2459" x2="401.769" y2="471.757" gradientUnits="userSpaceOnUse">
<stop offset="0.32" stop-color="#2A2A2A" stop-opacity="0.21"/>
<stop offset="1" stop-color="#232323"/>
</linearGradient>
<linearGradient id="paint19_linear_1_2056" x1="-25.0967" y1="26.2459" x2="401.769" y2="471.757" gradientUnits="userSpaceOnUse">
<stop offset="0.32" stop-color="#2A2A2A" stop-opacity="0.21"/>
<stop offset="1" stop-color="#232323"/>
</linearGradient>
<linearGradient id="paint20_linear_1_2056" x1="-25.0967" y1="26.2459" x2="401.769" y2="471.757" gradientUnits="userSpaceOnUse">
<stop offset="0.32" stop-color="#2A2A2A" stop-opacity="0.21"/>
<stop offset="1" stop-color="#232323"/>
</linearGradient>
<linearGradient id="paint21_linear_1_2056" x1="-25.0967" y1="26.2459" x2="401.769" y2="471.757" gradientUnits="userSpaceOnUse">
<stop offset="0.32" stop-color="#2A2A2A" stop-opacity="0.21"/>
<stop offset="1" stop-color="#232323"/>
</linearGradient>
<linearGradient id="paint22_linear_1_2056" x1="-25.0967" y1="26.2459" x2="401.769" y2="471.757" gradientUnits="userSpaceOnUse">
<stop offset="0.32" stop-color="#2A2A2A" stop-opacity="0.21"/>
<stop offset="1" stop-color="#232323"/>
</linearGradient>
<linearGradient id="paint23_linear_1_2056" x1="-25.0967" y1="26.2459" x2="401.769" y2="471.757" gradientUnits="userSpaceOnUse">
<stop offset="0.32" stop-color="#2A2A2A" stop-opacity="0.21"/>
<stop offset="1" stop-color="#232323"/>
</linearGradient>
</defs>
</svg>
