<svg width="32" height="32" viewBox="0 0 32 32" fill="none" xmlns="http://www.w3.org/2000/svg">
<path d="M28.8575 13.6563L21.1475 10.8525L18.3438 3.14252C18.1689 2.66136 17.8502 2.24567 17.4309 1.95193C17.0115 1.65818 16.512 1.50061 16 1.50061C15.4881 1.50061 14.9885 1.65818 14.5692 1.95193C14.1499 2.24567 13.8312 2.66136 13.6563 3.14252L10.8525 10.8525L3.14252 13.6563C2.66136 13.8312 2.24567 14.1499 1.95193 14.5692C1.65818 14.9885 1.50061 15.4881 1.50061 16C1.50061 16.512 1.65818 17.0115 1.95193 17.4309C2.24567 17.8502 2.66136 18.1689 3.14252 18.3438L10.8525 21.1475L13.6563 28.8575C13.8312 29.3387 14.1499 29.7544 14.5692 30.0481C14.9885 30.3419 15.4881 30.4994 16 30.4994C16.512 30.4994 17.0115 30.3419 17.4309 30.0481C17.8502 29.7544 18.1689 29.3387 18.3438 28.8575L21.1475 21.1475L28.8575 18.3438C29.3387 18.1689 29.7544 17.8502 30.0481 17.4309C30.3419 17.0115 30.4994 16.512 30.4994 16C30.4994 15.4881 30.3419 14.9885 30.0481 14.5692C29.7544 14.1499 29.3387 13.8312 28.8575 13.6563ZM19.9013 18.4063C19.5584 18.5306 19.247 18.7287 18.9891 18.9866C18.7312 19.2445 18.5331 19.5559 18.4088 19.8988L16 26.5238L13.5913 19.8988C13.467 19.5559 13.2689 19.2445 13.011 18.9866C12.7531 18.7287 12.4417 18.5306 12.0988 18.4063L5.47377 16L12.0988 13.5913C12.4417 13.467 12.7531 13.2689 13.011 13.011C13.2689 12.7531 13.467 12.4417 13.5913 12.0988L16 5.47377L18.4088 12.0988C18.5331 12.4417 18.7312 12.7531 18.9891 13.011C19.247 13.2689 19.5584 13.467 19.9013 13.5913L26.5263 16L19.9013 18.4063Z" fill="#595959"/>
</svg>
